<svg xmlns="http://www.w3.org/2000/svg" viewBox="0 0 38 38">
  <g id="Layer_2" data-name="Layer 2">
    <g id="Layer_1-2" data-name="Layer 1">
      <path d="M23.53,0A17.66,17.66,0,0,1,30.06,13.8c0,9.64-7.53,17.44-16.82,17.44h0A16.62,16.62,0,0,1,0,24.55,18.84,18.84,0,0,0,17.82,38c10.36,0,18.76-8.71,18.76-19.45h0A19.41,19.41,0,0,0,23.53,0Z"/>
      <path d="M15.63,7.49a1.24,1.24,0,0,1,.45.95,1.19,1.19,0,0,1-1.16,1.21A1.12,1.12,0,0,1,14,9.18a1.3,1.3,0,0,0,1.21.93l-.09.81,0,.35a.22.22,0,0,0-.13.21.24.24,0,0,0,.12.21.28.28,0,0,0,0,.49.36.36,0,0,0-.2.32.34.34,0,0,0,.12.26c-1,1.67-3.34,2.24-3.61,3.38a2.07,2.07,0,0,0,1,2h0a.36.36,0,0,0-.27.59,23.62,23.62,0,0,0-2.14,1v.29c-.31.14-.62.27-1,.39v.26L8.46,21V19.37l.5-.53v-.25h-.5V15.66l.5-.54v-.24h-.5V12.33l.5-.54v-.24H8.41L7.68,8.41,7,11.55H6.4v.24l.51.54v2.55H6.4v.24l.51.54v2.93H6.4v.25l.51.53V24H4.32v-.94l.5-.54v-.24h-.5V19.37l.5-.53v-.25h-.5V16.05l.5-.54v-.24H4.27l-.73-3.14-.73,3.14H2.26v.24l.5.54v2.54h-.5v.25l.5.53v2.94h-.5v.24l.5.54V29.2H4.32l3.75,2.49h2.38V23.78a2.48,2.48,0,0,1,1.23-2.17,2.45,2.45,0,0,1,1.23,2.17v7.91H14V23.78a2.45,2.45,0,0,1,1.23-2.17,2.45,2.45,0,0,1,1.23,2.17v7.91h1.12V23.78a2.48,2.48,0,0,1,1.23-2.17,2.45,2.45,0,0,1,1.23,2.17v7.91h3.55l2.59-2.49h1.56V23.09l.5-.54v-.24h-.5V19.37l.5-.53v-.25h-.5V16.05l.5-.54v-.24h-.55L27,12.13l-.73,3.14h-.55v.24l.5.54v2.54h-.5v.25l.5.53v2.94h-.5v.24l.5.54V24H23.63V19.37l.5-.53v-.25h-.5V15.66l.5-.54v-.24h-.5V12.33l.5-.54v-.24h-.55l-.73-3.14-.73,3.14h-.55v.24l.5.54v2.55h-.5v.24l.5.54v2.93h-.5v.25l.5.53V21c-.29-.08-.56-.17-.83-.26v-.26c-.34-.12-.66-.25-1-.39V19.8c-.69-.31-1.25-.71-2-1a.37.37,0,0,0,.13-.28.36.36,0,0,0-.35-.36h0a2.07,2.07,0,0,0,1-2c-.27-1.14-2.6-1.71-3.61-3.38a.36.36,0,0,0,.11-.26.35.35,0,0,0-.19-.32.28.28,0,0,0,.13-.23.27.27,0,0,0-.18-.26.23.23,0,0,0,.13-.21.22.22,0,0,0-.13-.21l.05-.35-.09-.81a1.32,1.32,0,0,0,1.21-1.34,1.34,1.34,0,0,0-.9-1.28Zm-8,5.33a1,1,0,0,1,.51.9v.76h-1v-.76a1,1,0,0,1,.5-.9Zm15.17,0a1,1,0,0,1,.51.9v.76h-1v-.76a1,1,0,0,1,.5-.9ZM7.68,16.45a1,1,0,0,1,.51.9v.76h-1v-.76a1,1,0,0,1,.5-.9Zm15.17,0a1,1,0,0,1,.51.9v.76h-1v-.76a1,1,0,0,1,.5-.9Zm-19.31.09a1,1,0,0,1,.51.9v.76H3v-.76A1,1,0,0,1,3.54,16.54Zm23.46,0a1,1,0,0,1,.51.9v.76h-1v-.76a1,1,0,0,1,.51-.9ZM3.54,20.17a1,1,0,0,1,.51.9v.76H3v-.76A1,1,0,0,1,3.54,20.17Zm23.46,0a1,1,0,0,1,.51.9v.76h-1v-.76a1,1,0,0,1,.51-.9Z"/>
      <path d="M14.48,0A1.3,1.3,0,0,0,14,1a1.27,1.27,0,0,0,1.25,1.3,1.19,1.19,0,0,0,1-.5,1.39,1.39,0,0,1-1.32,1,1.42,1.42,0,0,1-1.39-1.44,1.44,1.44,0,0,1,1-1.38Z"/>
      <path d="M9.87,1.44l.4.21.06.45.32-.32.44.07-.21-.41L11.09,1l-.44.07L10.33.77l-.06.46Z"/>
      <path d="M12.47.8h-.18l-.1-.16-.07.18-.18,0,.15.12,0,.19.16-.1.17.07,0-.19Z"/>
      <path d="M7.55,1.71l.25.21,0,.34.27-.18.3.12-.08-.32.2-.26-.32,0L8,1.32l-.12.31Z"/>
      <path d="M5.1,3.33l.25-.21,0-.34L5.6,3l.3-.12-.08.32L6,3.42l-.32,0-.17.28-.12-.31Z"/>
      <path d="M31.76,8.63l-.25-.21,0-.34-.27.18L31,8.14l.08.32-.21.26.32,0,.17.28.12-.31Z"/>
      <path d="M7.47,2.69l-.18-.15,0-.24-.2.13-.21-.1,0,.24-.15.19H7L7.16,3l.09-.23Z"/>
      <path d="M12.91,2.51h-.19l-.1-.17-.07.18-.18.05.15.12v.2l.15-.11.18.07-.05-.19Z"/>
      <path d="M9.5,2.3h.19l.1-.16.06.18.18,0-.14.12v.19l-.16-.1-.17.07,0-.19Z"/>
      <path d="M5.89,4.46h.19l.1-.16.06.18.19,0-.15.13v.19l-.15-.11L6,4.79l0-.18Z"/>
      <path d="M37.47,7.88h.18l.1.16.07-.18.18,0-.15-.12,0-.19-.16.11-.17-.08,0,.19Z"/>
      <path d="M15,3.57h.19l.1.17.06-.19.18,0-.14-.12V3.2l-.16.11L15,3.24l.05.18Z"/>
      <path d="M16.88,2.93h.19l.1.16.07-.18.18,0-.15-.12V2.56l-.15.1L17,2.59l0,.19Z"/>
      <path d="M18.31,2.83l.25.21,0,.34.28-.18.3.12L19,3l.21-.26-.32,0-.17-.28-.12.31Z"/>
      <path d="M35.09,8.18,35.34,8l0-.33.27.18.3-.13L35.81,8l.21.25-.32,0-.17.29-.12-.31Z"/>
      <path d="M27.45,8.07l.25.22,0,.33L28,8.44l.3.13-.08-.33L28.38,8l-.33,0-.17-.29L27.77,8Z"/>
      <path d="M20.71,4.27l.25.21,0,.34.28-.18.29.12-.08-.32.21-.26-.32,0-.17-.28L21,4.19Z"/>
      <path d="M24.92,7l.24.21,0,.33.27-.18.3.13-.08-.33.21-.25-.32,0-.17-.29-.12.32Z"/>
      <path d="M21.07,6.37h.19l.1.16.06-.18.18-.05-.14-.12V6l-.16.1L21.14,6l.05.19Z"/>
      <path d="M19.33,4.79h.18l.1.17.07-.18.18,0-.14-.12v-.2l-.16.11-.17-.07.05.18Z"/>
      <path d="M26.32,8.66h.19l.1.17.07-.18.18-.05-.15-.12v-.2l-.15.11-.18-.07.05.18Z"/>
      <path d="M23,7.28h.19l.1.16.07-.18.18,0-.15-.12V6.9L23.21,7,23,6.94l0,.19Z"/>
      <path d="M22.37,6h.19l.1.17L22.73,6l.18,0-.15-.12v-.2l-.15.11-.18-.07,0,.18Z"/>
      <path d="M3.57,3.87h.18l.1-.16.07.18.18,0L4,4.05l0,.19-.16-.11-.17.07,0-.18Z"/>
      <path d="M4,5.16H4.2L4.3,5l.06.18.18,0-.14.12v.2l-.16-.11-.17.07,0-.19Z"/>
    </g>
  </g>
</svg>