<svg xmlns="http://www.w3.org/2000/svg" viewBox="0 0 111.72 20.3"><defs><style>.cls-1{fill:#26a745;}.cls-2{fill:#58565d;}.cls-3{fill:#2c2a2d;}.cls-4{fill:#afaeb4;}.cls-5{fill:#8b8892;}.cls-6{fill:#56b78b;}.cls-7{fill:#fff;}.cls-8{fill:#c8c6ce;}.cls-9{fill:#0fa653;}</style></defs><g id="Layer_2" data-name="Layer 2"><g id="Layer_1-2" data-name="Layer 1"><path class="cls-1" d="M26.26,20l7-14.62,7,14.62H37.1L36,17.67H30.42L29.33,20ZM35,15.53l-.86-1.81c-.19-.4-.5-1.12-.92-2.14-.1.22-.25.57-.44,1.05s-.35.82-.46,1.06l-.88,1.84Z"/><path class="cls-1" d="M44.81,6V20H42V6Z"/><path class="cls-1" d="M55.69,11.63v2.81H47.61V11.63Z"/><path class="cls-1" d="M61.2,6v5.22h6.07V6h2.81V20H67.27V14H61.2v6H58.4V6Z"/><path class="cls-1" d="M81,9.89v-.7h2.81V20H81v-.71a4.19,4.19,0,0,1-2.91,1,5.72,5.72,0,0,1-5.71-5.72,5.72,5.72,0,0,1,5.71-5.71A4.19,4.19,0,0,1,81,9.89Zm0,4.68a3.05,3.05,0,0,0-.85-2.18,2.69,2.69,0,0,0-2.06-.91,2.72,2.72,0,0,0-2.06.91,3.09,3.09,0,0,0-.85,2.18,3.14,3.14,0,0,0,.85,2.2,2.74,2.74,0,0,0,2.06.9,2.71,2.71,0,0,0,2.06-.9A3.09,3.09,0,0,0,81,14.58Z"/><path class="cls-1" d="M95.16,20V19a3.46,3.46,0,0,1-2.91,1.28,5.45,5.45,0,0,1-4-1.69,5.47,5.47,0,0,1-1.67-4V9.19h2.8v5.38a2.92,2.92,0,0,0,2.91,2.92,2.92,2.92,0,0,0,2.91-2.91V9.19H98V20Z"/><path class="cls-1" d="M106,8.86a4.19,4.19,0,0,1,2.91,1V6h2.81V20h-2.81v-.71a4.19,4.19,0,0,1-2.91,1,5.72,5.72,0,0,1-5.71-5.72A5.72,5.72,0,0,1,106,8.86Zm2.91,5.71a3.05,3.05,0,0,0-.85-2.18,2.69,2.69,0,0,0-2.06-.91,2.72,2.72,0,0,0-2.06.91,3.09,3.09,0,0,0-.85,2.18,3.14,3.14,0,0,0,.85,2.2,2.74,2.74,0,0,0,2.06.9,2.71,2.71,0,0,0,2.06-.9,3.09,3.09,0,0,0,.85-2.19Z"/><rect class="cls-2" y="12.66" width="4.67" height="6.92"/><rect class="cls-3" x="17.89" y="12.66" width="4.67" height="6.92"/><rect class="cls-2" x="6.81" y="6.72" width="8.95" height="3.8"/><rect class="cls-4" x="3.29" y="9.14" width="15.98" height="10.44"/><rect class="cls-3" x="11.28" y="6.72" width="4.47" height="3.8"/><rect class="cls-5" x="11.28" y="9.14" width="7.99" height="10.44"/><rect class="cls-2" x="10.59" width="1.38" height="2.23"/><rect class="cls-3" x="11.28" width="0.69" height="2.23"/><path class="cls-6" d="M17.24,8.1H5.33V7.4a5.95,5.95,0,0,1,11.89,0Z"/><rect class="cls-7" x="6.11" y="14.47" width="2.05" height="4.42"/><rect class="cls-7" x="10.25" y="14.47" width="2.05" height="4.42"/><rect class="cls-8" x="14.4" y="14.47" width="2.05" height="4.42"/><rect class="cls-6" x="5.45" y="11.51" width="3.38" height="1.38"/><rect class="cls-6" x="9.54" y="11.51" width="3.38" height="1.38"/><rect class="cls-9" x="13.69" y="11.51" width="3.38" height="1.38"/><rect class="cls-8" x="11.28" y="14.47" width="1.02" height="4.42"/><rect class="cls-9" x="11.28" y="11.51" width="1.64" height="1.38"/><path class="cls-9" d="M17.24,8.1h-6V1.54a5.94,5.94,0,0,1,6,5.86Z"/></g></g></svg>