<svg xmlns="http://www.w3.org/2000/svg" viewBox="0 0 361.52 230.02"><defs><style>.cls-1{fill:#fff;}.cls-2{fill:#dde4f4;}.cls-3{fill:#e8edf8;}.cls-4{fill:#94b0dd;}.cls-5{fill:#4453a0;}.cls-6{fill:#ef7971;}.cls-7{fill:#f39f9e;}.cls-8{fill:#e9615b;}.cls-9{fill:#2b2f6f;}.cls-10{fill:#2a2d69;}.cls-11{fill:#292c63;}.cls-12{fill:#272859;}.cls-13{fill:#beceeb;}.cls-14{fill:#2c307a;}.cls-15{fill:#7e93cb;}.cls-16{fill:#f8c8cd;}</style></defs><g id="Layer_2" data-name="Layer 2"><g id="Layer_1-2" data-name="Layer 1"><path class="cls-1" d="M127,220.76l.79,1.05c2,2.62,4.15,5,7.9,5q50.44-.09,100.9-.13c1.89,1.38,3.86,1,6,.75a202.87,202.87,0,0,1,21.72-1.52c5.68,0,11.35,1.25,17,1.86,1.65.17,3.52.21,4-1.92s-.18-3.92-2.81-4.18c7.88-3.09,15.81-6.09,23-10.74q-.58,5.42-1.18,10.83c-3.61,2.92-9.35,2.73-12.47,8h9.92c7.88,0,7.88,0,7.46-8,2.23-3.29,2.87-7.06,3.26-10.9a36.3,36.3,0,0,0,2.76-13c1.95-1.78.73-4.31,1.38-6.21,2.18,1.14,1.42,3.38,1.9,5.21V209.9c-.25,4.31-.58,8.63.74,12.85-1.26,2.37-4.59,5,.21,6.91,1.49.61,3.83.64,4.73-1.46,1.15-2.69-1-4-2.76-5.33,4.65-3.75,3.32-9.09,3.72-14,1.73-3.86,1.19-7.91,1-11.94,2.31-3.39.65-7.2,1.16-10.79,6.19.44,3.37-4.23,4-7,1.92-.41,4.9.54,4.81-2.75-.06-2.18-1.84-3.35-4.14-3.35h-1.48v-5c1.85,1.63,14.42,3.08,15.91,1.59a2.81,2.81,0,0,0-.35-4.59c-3.07-2.4-13.22-1-15.74,2.15-1.83-1.58-.7-3.67-1-5.52-.41-2.84.89-5.91-1.15-8.53,3.52-1.43,6.9-3.16,7.78-7.23,1.95-9-1.25-18.31-11.65-22.5l-1-1.07c2.07-1.89,4.4-3.57,6.15-5.73,3.3-4.06,9.38-6.2,9.05-12.87,0-.87,1-1.39,1.61-.19s1,1.41,2,.29c9.29-10.56,17.25-22.11,18.82-36.3,2-17.88-.3-30-24.16-34.77C324.32,30.34,311.6,30.18,299,29c-14-1.27-26.12-5.12-36.08-15.95C248.05-3.08,231.31-3.4,212.74,7.39,201.42,14,191.39,22.3,180.83,29.9c-6.45,3.67-12.4,8.18-19.28,11.13-10.23,4.37-20.5,7.45-32,6-6.84-.88-12.87-3.93-19.48-5.19-4.89-4.28-10.28-7.51-16.93-8.16-.84-3.08-3.92-2.74-6-3.68-12.53-5.61-25.87-7.92-39.28-5.57C23.59,28.68,13.5,53.22,16.78,74.5c.66,4.31,2.59,8.26,4.61,12,6.11,11.13,4.56,21.89-.47,32.75-4.6,10-11.24,18.67-17,27.9-5,8-5.12,16.32-.67,24.43,4.05,7.4,10.4,12.65,17.91,16.48.14,2.35.64,4.75-.89,6.89-1.27,1.05-2.89,1.85-2.83,3.86a21.56,21.56,0,0,1-4.46.12c-5.06-.85-6.33,2.3-6.53,6.22-.22,4.45-.11,8.92,0,13.38.09,5.33,2.13,7.29,7.46,7.29,31.8,0,63.61-.09,95.42.11,4.74,0,7-1.84,7.93-6,3.33-.13,6.48,1.6,9.86.94Z"/><path class="cls-2" d="M180.83,29.9C191.39,22.3,201.42,14,212.74,7.39c18.57-10.79,35.31-10.47,50.16,5.7C272.86,23.92,285,27.77,299,29c12.62,1.14,25.34,1.3,37.83,3.82,23.86,4.81,26.13,16.89,24.16,34.77-1.57,14.19-9.53,25.74-18.82,36.3-1,1.12-1.39,1-2-.29s-1.65-.68-1.61.19c.33,6.67-5.75,8.81-9.05,12.87-1.75,2.16-4.08,3.84-6.15,5.73-2.5-.08-5.11.21-7-2-.88-2.55-2.28-5-1-7.86,2.5-.44,3.32-1.75,2.16-4.1-2.72-7.39-5.11-8.51-12.77-5.95-3.41,1.13-4.23,5-2.34,10.81l3,8c-1.72.21-3.84-.43-4.76,1.67-1.73,3.93-4.43,7.56-4.13,12.17a3,3,0,0,1-.88.23c-2.44.62-4-1.25-5.91-2.09a3.91,3.91,0,0,1-.22-.88c-.18-1.6.79-3.79-2.09-4-4.74,1.43-.16,4-.71,5.9.1,3.74,2.55,6.62,3.66,10-3.5,5.24-7.72,9.65-13.82,11.89,1.59-6.55.51-13.08-1.15-19.33-2.69-10.09-2.59-19.61,1.91-29.26,3.64-7.8,5.51-16.08,3.27-24.85S274.26,67,264.78,64.26c-5.61-1.6-10.27,1.09-15.24,2.54-2.21-2.45-4.85-3.19-8.24-3.17-19.82.13-39.65,0-59.47-.08,0-3.15.13-6.3,0-9.44C181.43,46,182.85,37.9,180.83,29.9Z"/><path class="cls-3" d="M21.12,188c-7.51-3.83-13.86-9.08-17.91-16.48-4.45-8.11-4.32-16.47.67-24.43,5.8-9.23,12.44-17.94,17-27.9,5-10.86,6.58-21.62.47-32.75-2-3.7-3.95-7.65-4.61-12C13.5,53.22,23.59,28.68,47.84,24.42c13.41-2.35,26.75,0,39.28,5.57,2.11.94,5.19.6,6,3.69-4.67.15-9.15,1-13.1,3.67-9.37,6.31-12.25,15.8-12.88,26.37-12.25,0-24.5,0-36.74,0-2.8,0-6,.17-5.81,3.64.13,3,3.28,3.18,5.81,3.32.82,0,1.65,0,2.48,0H67.17c1,3.94,1.25,8.26,3.08,11.77,7,13.49,8.16,27.18,3.62,41.7a46.11,46.11,0,0,0-.59,25.18c-.42.93-.84,1.87-1.27,2.81-2-1.68-6-2.94-6.23-4.16-1.07-4.66-4.5-7.14-7.47-10-6.56-6.25-16.2-6.32-21.76-.5-5.26,5.49-4.27,17.94,2,24.4,4.24,4.37,9,8.28,11.65,14-9.27.06-18.53.1-27.8.2-1.57,0-3.76-.71-4.45,1.15s1.38,2.65,2.5,3.74C21.5,183.25,21.38,185.63,21.12,188ZM45.86,79.62c5.62,0,11.24,0,16.87,0,2.48,0,3.82-1.43,3.83-3.6S64.74,73.88,63,73.6c-10.85-1.75-21.75-.57-32.62-.94-2.63-.09-5.63.16-5.73,3.22-.11,3.47,3.23,3.65,5.87,3.71C35.61,79.71,40.74,79.62,45.86,79.62Z"/><path class="cls-4" d="M67.17,63.72c.63-10.57,3.51-20.06,12.88-26.37,4-2.65,8.43-3.52,13.1-3.67,6.65.64,12,3.87,16.93,8.15,5.17,5.43,9.12,11.57,10.82,19,1.45,6.32,1.76,12.94,4.93,18.81A6,6,0,0,1,127,83.25q-.15,32-.2,64c-2.91-10-5.87-20.09-8.72-30.15q-8.76-30.89-19.86-61c-.27-.73.07-2.25-1.62-1.69-.77,1-.08,1.88.2,2.8,7.07,22.71,14.52,45.31,20.81,68.25,3,10.9,6.13,21.76,9.2,32.64q0,10.95,0,21.91c-4.8-6.5-8-14.14-13.77-19.94,1.54-1.66,3-3.36,4.63-5,2.8-2.92.77-12.73-3.07-14.59a5.36,5.36,0,0,0-.49.7c-2.95-.18-2.91,3.43-5.2,4.08-2.79-2-4.11.5-5.78,1.9.82-5.59-2.86-10.3-3.07-15.69,2.56-.77,3.39-2.92,4.14-5.14,5-4.33,5.29-7.8.5-10.71-8.28-5-13.38-1.54-15.45,8a11.86,11.86,0,0,1-3.59,6.91c-3,2.86-7.88,5-6.38,10.69q-3,4-6,8.12a46.11,46.11,0,0,1,.59-25.18c4.54-14.52,3.43-28.21-3.62-41.7-1.83-3.51-2.09-7.83-3.08-11.77,2.48,0,5,.15,7.43-.11,1.81-.19,3.69-.9,3.43-3.35-.23-2.1-1.82-2.49-3.61-2.53C72,64.63,69.44,65.15,67.17,63.72Zm22.38,1h-5c-1.61,0-3.13.41-3.27,2.26a3.17,3.17,0,0,0,2.91,3.45,63.41,63.41,0,0,0,10.85,0,3.09,3.09,0,0,0,2.78-3.52c-.24-1.86-1.78-2.15-3.37-2.16ZM77.92,79.62c1.71,0,3,0,4.36,0,2.34,0,3.8-.8,3.82-3.4,0-2.83-2-2.56-3.78-2.56-3.14,0-6.28,0-9.43,0-1.46,0-2.59.35-2.69,2.14A3,3,0,0,0,72,79C74,80,76.19,79.49,77.92,79.62Z"/><path class="cls-5" d="M117.19,219.85c-1,4.2-3.19,6.07-7.93,6-31.81-.2-63.62-.1-95.42-.11-5.33,0-7.37-2-7.46-7.29-.08-4.46-.19-8.93,0-13.38.2-3.92,1.47-7.07,6.53-6.22a21.56,21.56,0,0,0,4.46-.12l89.61.09c3.66-.64,7.34,1.47,11-.1,2.47,2.57,4,6.24,7.93,7.14l.9,1,.09,5-.93.1-8.82-6.69V212Zm-78.14-7.48h.21c0-.17,0-.33,0-.5-.27-3.09,1.1-6.62-.66-9.2-1.66-2.42-4.78,0-7.42-.44-11-2-11.86-1.1-11.86,9.91,0,.33,0,.66,0,1,.17,10.46-2.23,10.12,10.91,9.4,2.84-.15,7,2.32,8.57-.89C40.06,219.14,39.05,215.5,39.05,212.37Z"/><path class="cls-3" d="M125.83,79.61c-3.17-5.87-3.48-12.49-4.93-18.81-1.7-7.4-5.65-13.54-10.82-19,6.61,1.26,12.64,4.31,19.48,5.19,11.49,1.46,21.76-1.62,32-6,6.88-3,12.83-7.46,19.28-11.13,2,8,.6,16.14,1,24.21.15,3.14,0,6.29,0,9.44l-38.89.33h-2c-1.32-.61-2,.56-3,1-1.71-.3-2.89.65-4,1.7l-2,1.28C127,70.25,127.32,75.4,125.83,79.61Z"/><path class="cls-6" d="M107,198.86l-89.61-.09c-.06-2,1.56-2.81,2.83-3.86L95.3,195c5.62,0,6.84-1.32,6.8-7.12S100.87,181,95,181l-74.57,0c-1.12-1.09-3.15-2-2.5-3.74s2.88-1.13,4.45-1.15c9.27-.1,18.53-.14,27.8-.2H73.12a35.19,35.19,0,0,0,17.79,1.82c4-.61,8.28-1.9,11.89-.91,2.72.75,3,5.39,4.29,8.33l2.13,4.88C108.74,193,109.91,196.45,107,198.86Z"/><path class="cls-7" d="M20.44,181,95,181c5.86,0,7,1.16,7.09,6.84S100.92,195,95.3,195l-75.07-.09c1.53-2.14,1-4.54.89-6.89C21.38,185.63,21.5,183.25,20.44,181ZM99,187.85l-.06-.54H24.57v.54Zm.07-4-.19-.49H24.64v.49Zm-.07,9-.06-.53H24.57v.53Zm0-7-.14-.51H24.61v.51Zm-74.39,4.33-.19.54h74.6v-.54Z"/><path class="cls-5" d="M282.6,221.66c2.63.26,3.3,2,2.81,4.18s-2.34,2.09-4,1.92c-5.68-.61-11.35-1.84-17-1.86a202.87,202.87,0,0,0-21.72,1.52c-2.19.23-4.16.63-6-.75V223c3.27-2.46,7.24-.2,11.28-1.3a20.55,20.55,0,0,0-7.2-2.87h0q-1.08-2.49-2.15-5c.06-.64.12-1.28.19-1.92,1.4-3,4.11-3.17,6.9-3.15l3.82,1.14a34.68,34.68,0,0,0,10.12,5c1.1,1.54,2.66.86,4.08.83,3.94-1.94,8.36-2.89,11.91-5.64l3-1.34,4.87.29a6.16,6.16,0,0,1,2,6.72c-1.15,4-5.35,4.14-8.95,5.95Z"/><path class="cls-8" d="M331.37,179.2c-.6,2.74,2.22,7.41-4,7-3.69-.25-7.44.08-11-1.31-1-11.72-3.27-23.31-3.46-35.2,2.88-.09,4.82,2.16,7.46,2.62s5.16,1.12,7.84.95c2,2.62.74,5.69,1.15,8.53.27,1.85-.86,3.94,1,5.51a2.11,2.11,0,0,0,.18.86v5C330.67,175.15,329.48,177.38,331.37,179.2Z"/><path class="cls-2" d="M282.6,221.66h-6.13c3.6-1.81,7.8-2,8.95-5.95a6.16,6.16,0,0,0-2-6.72c9.55-7.73,16.94-16.69,17.11-29.78l4.73-.15c.31,1.88-.29,4.15,2.17,5.12q.07,6.88.16,13.78c-1.72,4.16-.92,8.58-1.28,12.88-.26,0-.52.06-.79.08C298.41,215.57,290.48,218.57,282.6,221.66Z"/><path class="cls-8" d="M296.5,135.14c-.3-4.61,2.4-8.24,4.13-12.17.92-2.1,3-1.46,4.76-1.67,3.9,3,7.22-1.47,10.94-.85,1.91,2.19,4.52,1.9,7,2l1,1.07c-1.84,5.68-3.43,11,1.19,16.6,2.49,3-.22,6.48-4.47,6.08-2.91-.28-5.75-1.28-8.61-2-.05-1.69,0-3.41-1.13-4.84-.68-4.42,1.83-9.41-2.33-13.24a81.58,81.58,0,0,1,.37,13.06l-2-.07c-.21-3.14-.84-5.44-5-4C300.65,135.76,298.48,135.18,296.5,135.14Z"/><path class="cls-9" d="M236.62,223v3.71q-50.44.06-100.9.13c-3.75,0-5.87-2.37-7.9-5,.18-.68-.23-.92-.79-1.05l0,0c-.06-1-.11-1.94-.17-2.91l4.23-.08c2.26,4,5.91,5,10.24,5Q189,222.83,236.62,223Z"/><path class="cls-6" d="M312.5,144.23c2.86.67,5.7,1.67,8.61,2,4.25.4,7-3.08,4.47-6.08-4.62-5.56-3-10.92-1.19-16.6C334.79,127.69,338,137,336,146c-.88,4.07-4.26,5.8-7.78,7.23-2.68.17-5.23-.5-7.84-.95s-4.58-2.71-7.46-2.62c.19,11.89,2.47,23.48,3.46,35.2h-2c-1.93-10.85-2.9-21.81-4.06-32.75,0-1.61,0-3.21,0-4.81C312.38,147.19,312.41,145.69,312.5,144.23Z"/><path class="cls-10" d="M314.46,184.86h2c3.54,1.39,7.29,1.06,11,1.31-.51,3.59,1.15,7.4-1.16,10.79h-7.65c-.48-1.83.28-4.07-1.9-5.21-.65,1.9.57,4.43-1.38,6.21h-7.68q-.09-6.9-.16-13.78C309.89,183.47,312.13,184.59,314.46,184.86Z"/><path class="cls-11" d="M307.63,198h7.68a36.3,36.3,0,0,1-2.76,13l-6.2-.08C306.71,206.54,305.91,202.12,307.63,198Z"/><path class="cls-11" d="M318.59,197h7.65c.19,4,.73,8.08-1,11.94l-6.64,1Z"/><path class="cls-9" d="M309.29,221.82c.42,7.94.42,7.94-7.46,8h-9.92c3.12-5.29,8.86-5.1,12.47-8C306,222.8,307.63,223.12,309.29,221.82Z"/><path class="cls-4" d="M330.56,168.13a2.11,2.11,0,0,1-.18-.86c2.52-3.13,12.67-4.54,15.74-2.14a2.81,2.81,0,0,1,.35,4.59C345,171.21,332.41,169.76,330.56,168.13Z"/><path class="cls-12" d="M318.6,209.9l6.64-1c-.4,4.88.93,10.22-3.72,14l-2.18-.12C318,218.53,318.35,214.21,318.6,209.9Z"/><path class="cls-12" d="M309.29,221.82c-1.66,1.3-3.29,1-4.91-.07q.6-5.42,1.18-10.83c.27,0,.53,0,.79-.08l6.2.08C312.16,214.76,311.52,218.53,309.29,221.82Z"/><path class="cls-3" d="M126.88,217.88c.06,1,.11,1.94.17,2.91-3.38.66-6.53-1.07-9.86-.94,0-2.63,0-5.25,0-7.87l8.68,3.92C126.11,216.61,125.81,217.59,126.88,217.88Z"/><path class="cls-9" d="M319.34,222.75l2.18.12c1.76,1.35,3.91,2.64,2.76,5.33-.9,2.1-3.24,2.07-4.73,1.46C314.75,227.71,318.08,225.12,319.34,222.75Z"/><path class="cls-4" d="M331.37,179.2c-1.89-1.82-.7-4-.81-6.11H332c2.3,0,4.08,1.17,4.14,3.35C336.27,179.74,333.29,178.79,331.37,179.2Z"/><path class="cls-3" d="M127,220.76c.56.13,1,.37.79,1.05Z"/><path class="cls-4" d="M249.54,66.8c5-1.45,9.63-4.14,15.24-2.54C274.26,67,278.3,74,280.56,82.75s.37,17-3.27,24.85c-4.5,9.65-4.6,19.17-1.91,29.26,1.66,6.25,2.74,12.78,1.15,19.33a20.21,20.21,0,0,0-3.22,1.05c-4.2,2.1-9.66,2.36-11.63,7.78h-5.25c-1.81-2.08-5-1-6.86-2.9q.12-28.86.23-57.72,3.81-11.5,7.61-23l-1.19-.4c-3.1,4.77-3.1,10.89-6.41,15.58-.11-1.67-.22-3.33-.34-5Zm20.71,43.53c8.56-10.52,8.38-28.23-.05-37.31-.84-.91-1.79-1.85-2.91-.86s.13,1.77.75,2.43c8.81,9.25,7.9,19.55,3.37,30.28C270.74,106.45,269.12,107.81,270.25,110.33Z"/><path class="cls-11" d="M249.54,66.8l-.07,24.76c-3-.41-5.77.66-8.65,1,0-3.63-.36-7.29-.09-10.9.29-4-1.24-5.1-5.14-5.08q-36.83.23-73.65,0c-4,0-5.15,1.21-5.11,5.12.15,13.56,0,27.12-.09,40.69l-9.63-1c-.67-6.2.55-12.56-1.41-18.69a85.71,85.71,0,0,0-.79,13.16c0,1.44.81,3.51-1.9,3.62q0-27.79-.07-55.59l38.89-.33c19.82.06,39.65.21,59.47.08C244.69,63.61,247.33,64.35,249.54,66.8ZM146.5,68l-1,0V82.39l1,0Z"/><path class="cls-13" d="M261.68,165c2-5.42,7.43-5.68,11.63-7.78a20.21,20.21,0,0,1,3.22-1.05c6.1-2.24,10.32-6.65,13.82-11.89l.35-.11c1.8,2.82,1.49,7.14,5.81,8.19-3.14,4-7.6,6.94-9.89,11.68-3.15,0-6.31.08-9.46.09-2.14,0-3.43.82-3.58,3.15-.17,2.73,1.55,2.82,3.54,2.82q14.08,0,28.18,0v3.06c-8.37-.45-16.76.27-25.15-.41-3.12-.25-7.48-.22-6.58,5.32l-4.92,6.74c-.87.15-1.72.25-2.14-.79l2.22-6a8.76,8.76,0,0,0,2.15-4c1.37-1.06.42-2.59.79-3.86,1-1.54-2.06-1.52-1.2-3,.13-1.82-1-2.1-2.47-2.1C265.88,165.11,263.78,165.05,261.68,165Z"/><path class="cls-9" d="M310.35,147.3c0,1.6,0,3.2,0,4.81l-2.93-.06c-4.79-4.32-10.9-5.84-16.77-7.86l-.35.11c-1.11-3.37-3.56-6.25-3.66-10h2.66c1.35,2.82,3.87,1.88,6.09,1.88,1.41,3.93,5.11,3.38,8.14,4.13C303.44,145,307,146,310.35,147.3Z"/><path class="cls-5" d="M302.39,113.35c-1.89-5.84-1.07-9.68,2.34-10.81,7.66-2.56,10-1.44,12.77,5.95-2.31,1.88-5.57,1.07-7.93,2.8C307.37,112.64,304.52,111.74,302.39,113.35Z"/><path class="cls-7" d="M302.39,113.35c2.13-1.61,5-.71,7.18-2.06,1-1,.24,3.32,2.12.67,1-1.46,2.52-.2,3.65.63-1.29,2.82.11,5.31,1,7.86-3.72-.62-7,3.8-10.94.85Z"/><path class="cls-11" d="M303.58,140.32c-3-.75-6.73-.2-8.14-4.13.05-.27.11-.55.18-.82a3,3,0,0,0,.88-.23c2,0,4.15.62,5.9,0,4.19-1.45,4.82.85,5,4Z"/><path class="cls-11" d="M315.34,112.59c-1.13-.83-2.61-2.09-3.65-.63-1.88,2.65-1.08-1.66-2.12-.67,2.36-1.73,5.62-.92,7.93-2.8C318.66,110.84,317.84,112.15,315.34,112.59Z"/><path class="cls-11" d="M289.35,134.31h-2.66c.55-1.93-4-4.47.71-5.9a6.19,6.19,0,0,0,2.09,4,3.91,3.91,0,0,0,.22.88Z"/><path class="cls-13" d="M289.35,134.31l.36-1c1.92.84,3.47,2.71,5.91,2.09-.07.27-.13.55-.18.82C293.22,136.19,290.7,137.13,289.35,134.31Z"/><path class="cls-13" d="M289.49,132.4a6.19,6.19,0,0,1-2.09-4C290.28,128.61,289.31,130.8,289.49,132.4Z"/><path class="cls-5" d="M109.22,190l-2.13-4.88c-1.3-2.94-1.57-7.58-4.29-8.33-3.61-1-7.93.3-11.89.91a35.19,35.19,0,0,1-17.79-1.82c-1.45-1.63-2.53-3.39-1.86-5.72,1.41-.69.6-2,.87-3,1-1.6,3.93-3.38-.59-4.36-1.16-.25-1.21-1.67-1.39-2.84-.45-2.89.86-5.29,1.86-7.79.43-.94.85-1.88,1.27-2.81q3-4.07,6-8.12c2.6,1.1,6.26.44,7.59,3.67,2.49,6.06,6.86,8.34,13.18,7.37.25,1.75-1.37,2.51-2,3.78-.7.38-1.42,1.11-2.09,1.06-2.48-.18-3,1-2.87,3.18.21,2.74,2.23,1.75,3.62,1.83,2.1.12,4.21,0,6.31,0,3.85,1.85,7.21,1.25,10-2,5.82,5.8,9,13.44,13.77,19.94l3.21,7.84c-4.73,3.85-10.2,5.16-16.23,5.22C111.22,193.11,110.1,192,109.22,190Z"/><path class="cls-13" d="M72,152.14c-1,2.5-2.31,4.9-1.86,7.79.18,1.17.23,2.59,1.39,2.84,4.52,1,1.58,2.76.59,4.36-.75-.28-1.85-.34-2.2-.88-3.67-5.57-9.27-9.38-13.24-14.7-2.32-3.11-5-6.26-9.07-7.55,7.93,8.71,14.86,18.28,23.64,26.17-.67,2.33.41,4.09,1.86,5.72H50.19c-2.63-5.7-7.41-9.61-11.65-14-6.26-6.46-7.25-18.91-2-24.4,5.56-5.82,15.2-5.75,21.76.5,3,2.82,6.4,5.3,7.47,10C66.06,149.2,70,150.46,72,152.14ZM39.07,139.92c-5,8.21,1.86,23.31,11.24,24.46C42.64,157.79,36,151.08,39.07,139.92Z"/><path class="cls-13" d="M67.17,63.72c2.27,1.43,4.8.91,7.25,1,1.79,0,3.38.43,3.61,2.53.26,2.45-1.62,3.16-3.43,3.35-2.46.26-4.95.09-7.43.11H32.91c-.83,0-1.66,0-2.48,0-2.53-.14-5.68-.36-5.81-3.32-.16-3.47,3-3.65,5.81-3.64C42.67,63.74,54.92,63.72,67.17,63.72Z"/><path class="cls-13" d="M45.86,79.62c-5.12,0-10.25.09-15.37,0-2.64-.06-6-.24-5.87-3.71.1-3.06,3.1-3.31,5.73-3.22,10.87.37,21.77-.81,32.62.94,1.77.28,3.6.39,3.59,2.43s-1.35,3.62-3.83,3.6C57.1,79.59,51.48,79.62,45.86,79.62Z"/><path class="cls-14" d="M100.07,152.25c-6.32,1-10.69-1.31-13.18-7.37-1.33-3.23-5-2.57-7.59-3.67-1.5-5.67,3.35-7.83,6.38-10.69a11.86,11.86,0,0,0,3.59-6.91c2.07-9.51,7.17-13,15.45-8,4.79,2.91,4.52,6.38-.5,10.71-1.42-.79-.56-3.76-3.21-3.37-3.3.48-2.73,3.5-3.51,5.55-.89,2.33,1,2.62,2.58,3,.21,5.39,3.89,10.1,3.06,15.69Q101.61,149.72,100.07,152.25Z"/><path class="cls-12" d="M130,187.86,126.83,180q0-11,0-21.91c0-3.62,0-7.23,0-10.85q.09-32,.2-64a6,6,0,0,0-1.18-3.64c1.49-4.21,1.18-9.36,6.15-11.75l0,121.25c-.27-.07-.55-.13-.82-.18Z"/><path class="cls-2" d="M126.81,147.26c0,3.62,0,7.23,0,10.85-3.07-10.88-6.21-21.74-9.2-32.64-6.29-22.94-13.74-45.54-20.81-68.25-.28-.92-1-1.78-.2-2.8,1.69-.56,1.35,1,1.62,1.69q11.16,30.11,19.86,61C120.94,127.17,123.9,137.21,126.81,147.26Z"/><path class="cls-12" d="M100.07,152.25q1.55-2.53,3.07-5.07c1.68-1.4,3-3.88,5.79-1.9,2.31,2.85,5.48,4.28,9.17,5.75-.58-3.92-2.71-6.7-4-9.83a5.36,5.36,0,0,1,.49-.7c3.84,1.86,5.87,11.67,3.07,14.59-1.58,1.63-3.09,3.33-4.63,5-2.84,3.22-6.2,3.82-10,2-1.63-2-2.46-4.71-5-6C98.7,154.76,100.32,154,100.07,152.25Z"/><path class="cls-13" d="M89.55,64.72h5c1.59,0,3.13.3,3.37,2.16a3.09,3.09,0,0,1-2.78,3.52,63.41,63.41,0,0,1-10.85,0A3.17,3.17,0,0,1,81.33,67c.14-1.85,1.66-2.25,3.27-2.26Z"/><path class="cls-13" d="M77.92,79.62c-1.73-.13-3.9.39-6-.63A3,3,0,0,1,70.2,75.8c.1-1.79,1.23-2.14,2.69-2.14,3.15,0,6.29,0,9.43,0,1.82,0,3.8-.27,3.78,2.56,0,2.6-1.48,3.44-3.82,3.4C81,79.6,79.63,79.62,77.92,79.62Z"/><path class="cls-13" d="M114.13,141.2c1.26,3.13,3.39,5.91,4,9.83-3.69-1.47-6.86-2.9-9.17-5.75C111.22,144.63,111.18,141,114.13,141.2Z"/><path class="cls-7" d="M100.08,131.49c-1.61-.34-3.47-.63-2.58-3,.78-2,.21-5.07,3.51-5.55,2.65-.39,1.79,2.58,3.21,3.37C103.47,128.57,102.64,130.72,100.08,131.49Z"/><path class="cls-15" d="M39.05,212.37c0,3.13,1,6.77-.25,9.27-1.62,3.21-5.73.74-8.57.89-13.14.72-10.74,1.06-10.91-9.4,0-.33,0-.66,0-1,0-11,.85-11.94,11.86-9.91,2.64.48,5.76-2,7.42.44,1.76,2.58.39,6.11.66,9.2,0,.17,0,.33,0,.5Z"/><path class="cls-11" d="M126.88,217.88c-1.07-.29-.77-1.27-1-2,.05-1.31.1-2.63.14-3.94l.93-.1c3-2.59,5.26-5.56,5-9.81,1.4.31,2.82,1.77,4.16-.1a1.91,1.91,0,0,0,1.84-1l3,0H246.61l0,1.85-.94.31c-33.53-.05-67.06-.19-100.59-.07-9.11,0-15.5,6.39-14,14.81Z"/><path class="cls-4" d="M130,187.86l1.09,1.07a5.05,5.05,0,0,1-2.52,4.34c-4.54,3.18-9.87,2.85-14.89,4.09,1.3,1.11,2.91.28,4.28.76v.64c-3.65,1.57-7.33-.54-11,.1,2.9-2.41,1.73-5.84,2.21-8.85.88,2,2,3.1,4.59,3.07C119.84,193,125.31,191.71,130,187.86Z"/><path class="cls-4" d="M126,212c0,1.31-.09,2.63-.14,3.94L117.17,212v-6.71Z"/><path class="cls-12" d="M132,202.05c.22,4.25-2,7.22-5,9.81l-.09-5L127,199Z"/><path class="cls-7" d="M118,198.76v-.64h5c1,2.59,1.93,5.19,2.9,7.78C122,205,120.47,201.33,118,198.76Z"/><path class="cls-4" d="M125.93,205.9c-1-2.59-1.93-5.19-2.9-7.78a4.6,4.6,0,0,1,4,.88l-.15,7.86Z"/><path class="cls-10" d="M138,200.94a1.91,1.91,0,0,1-1.84,1c-.28-2.8-3.16-3.73-4.26-5.94,3.06-.54,2.08-3,2.09-4.76q0-62.34,0-124.67c1.14-1,2.32-2,4-1.7Z"/><path class="cls-9" d="M138,200.94V64.88c1-.44,1.67-1.61,3-1l0,137Z"/><path class="cls-14" d="M141,200.9l0-137h2q0,27.79.07,55.59a2.82,2.82,0,0,0,0,.82l0,46.83q0,16.89-.05,33.78Z"/><path class="cls-11" d="M133.93,66.58q0,62.34,0,124.67c0,1.78,1,4.22-2.09,4.76l.09-6.9,0-121.25Z"/><path class="cls-16" d="M99,187.85H24.57v-.54H98.93Z"/><path class="cls-16" d="M99.06,183.85H24.65v-.49H98.87Z"/><path class="cls-16" d="M99,192.82H24.58v-.53H98.93Z"/><path class="cls-16" d="M99,185.85H24.61v-.51H98.89Z"/><path class="cls-16" d="M24.64,190.18H99.05v.54H24.45Z"/><path class="cls-4" d="M131.11,217.8c-1.48-8.42,4.91-14.78,14-14.81,33.53-.12,67.06,0,100.59.07,0,1.89,0,3.78-.07,5.68-2.79,0-5.5.14-6.9,3.15H146.53l0,1.92h92l2.14,5H181.41l0,1.41c.28.17.55.47.83.47l55.7.18c1.48,0,2.65-.28,2.73-2.06a20.55,20.55,0,0,1,7.2,2.87c-4,1.1-8-1.16-11.28,1.3q-47.64-.08-95.27-.13C137,222.83,133.37,221.82,131.11,217.8Zm26.41-13.38v1h79.6v-1Z"/><path class="cls-13" d="M300.57,179.21c-.17,13.09-7.56,22-17.11,29.78l-4.87-.29,0-3.77c1.94-7.11-1.32-16.14-8-19.87,2.23-1.49,3.26-4,4.94-5.92Z"/><path class="cls-2" d="M238.56,213.81h-92l0-1.92h92.22C238.68,212.53,238.62,213.17,238.56,213.81Z"/><path class="cls-12" d="M275.58,210c-3.55,2.75-8,3.7-11.91,5.64,0-1.61-.07-3.21-.11-4.82V201.1l1-1c2.53-.46,5.21-.54,7.55-1.48,4.65-1.86,6-.2,5.35,4.24C272.63,205.08,272.29,206.34,275.58,210Z"/><path class="cls-12" d="M246.66,202.75c0-.62,0-1.23,0-1.85l.06-3.1c4.53-.24,8.59,2.2,13.06,2.3,0,3.25-.06,6.51-.1,9.76l0,5a34.68,34.68,0,0,1-10.12-5C252.18,206.07,250.51,204,246.66,202.75Z"/><path class="cls-7" d="M275.58,210c-3.29-3.7-2.95-5,1.92-7.23.94.41,1,1.27,1.06,2.12l0,3.77Z"/><path class="cls-7" d="M246.66,202.75c3.85,1.23,5.52,3.32,2.81,7.13l-3.82-1.14c0-1.9,0-3.79.07-5.68Z"/><path class="cls-9" d="M259.59,214.85c0-1.67,0-3.33,0-5l3.93,1c0,1.61.07,3.21.11,4.82C262.25,215.71,260.69,216.39,259.59,214.85Z"/><path class="cls-8" d="M307.47,152.05l2.93.06c1.16,10.94,2.13,21.9,4.06,32.75-2.33-.27-4.57-1.39-7-.68-2.46-1-1.86-3.24-2.17-5.12,0-2,0-3.93,0-5.89v-3.06c.72-2.14-1.16-3.84-1-5.88q.09-5.92.16-11.85Z"/><path class="cls-4" d="M305.29,173.17c0,2,0,3.93,0,5.89l-4.73.15-25.11-.07-1.9-1.06c-.9-5.54,3.46-5.57,6.58-5.32C288.53,173.44,296.92,172.72,305.29,173.17Z"/><path class="cls-7" d="M303.58,140.32l3.85-1.18,2,.07,2,.18c1.14,1.43,1.08,3.15,1.13,4.84-.09,1.46-.12,3-2.15,3.07C307,146,303.44,145,303.58,140.32Z"/><path class="cls-6" d="M311.37,139.39l-2-.18a81.58,81.58,0,0,0-.37-13.06C313.2,130,310.69,135,311.37,139.39Z"/><path class="cls-10" d="M240.82,92.55c2.88-.33,5.68-1.4,8.65-1,.12,1.67.23,3.33.34,5,0,2.61,0,5.23,0,7.84q-.11,28.86-.23,57.72c-1.1-.05-2.32.38-3.18-.73s-1.87-1.18-2.48.17.47,1.44,1.49,1.62c1.4.25,2.75.7,4.12,1.07l-.06,1.87c-2.87.35-5.67,1.42-8.63,1Q240.82,129.83,240.82,92.55Z"/><path class="cls-13" d="M270.25,110.33c-1.13-2.52.49-3.88,1.16-5.46,4.53-10.73,5.44-21-3.37-30.28-.62-.66-1.82-1.47-.75-2.43s2.07,0,2.91.86C278.63,82.1,278.81,99.81,270.25,110.33Z"/><path class="cls-2" d="M249.8,104.4c0-2.61,0-5.23,0-7.84,3.31-4.69,3.31-10.81,6.41-15.58l1.19.4Q253.6,92.89,249.8,104.4Z"/><path class="cls-15" d="M261.68,165c2.1,0,4.2.09,6.31.1,1.45,0,2.6.28,2.47,2.1l-14.86-1.1.83-1.1Z"/><path class="cls-1" d="M256.43,165l-.83,1.1,0,0-6-1.83c-1.37-.37-2.72-.82-4.12-1.07-1-.18-2.15-.17-1.49-1.62s1.56-1.37,2.48-.17,2.08.68,3.18.73C251.46,164,254.62,162.94,256.43,165Z"/><path class="cls-4" d="M240.82,92.55q0,37.29,0,74.57c-.06,5.62-.23,11.24-.13,16.86.05,3-1.11,4.07-4.1,4.07q-37.82-.11-75.63,0c-3,0-4.16-1.06-4.1-4.07.1-5.62-.07-11.24-.13-16.86V122.38c.06-13.57.24-27.13.09-40.69,0-3.91,1.14-5.15,5.11-5.12q36.83.24,73.65,0c3.9,0,5.43,1.09,5.14,5.08C240.46,85.26,240.77,88.92,240.82,92.55Zm-80.76,67.61c-.05,7.61,0,15.21-.2,22.81-.06,2.4.79,3.09,3.14,3.09q35.31-.1,70.63,0c3,0,4.12-1.12,4.08-4.1-.16-9.58-.15-19.17-.21-28.76V112.43c.06-9.92.05-19.84.21-29.76,0-3-1.08-4.09-4.09-4.08q-35.33.12-70.65,0c-2.37,0-3.14.73-3.11,3.1.14,12.57.15,25.14.21,37.7Z"/><path class="cls-10" d="M156.74,122.38v44.74H147.1V134.55h-2.32v32.58H143l0-46.83c3.7,1.59.62,5.73,3.54,8.82.23-3.17.4-5.45.57-7.73Z"/><path class="cls-4" d="M147.11,121.38c-.17,2.28-.34,4.56-.57,7.73-2.92-3.09.16-7.23-3.54-8.82a2.82,2.82,0,0,1,0-.82c2.71-.11,1.87-2.18,1.9-3.62a85.71,85.71,0,0,1,.79-13.16C147.66,108.82,146.44,115.18,147.11,121.38Z"/><path class="cls-4" d="M146.5,68V82.36l-1,0V68Z"/><path class="cls-8" d="M278.56,204.93c-.06-.85-.12-1.71-1.06-2.12.63-4.44-.7-6.1-5.35-4.24-2.34.94-5,1-7.55,1.48-2.21-3.33-.5-7.05-1-10.55-.15-1-.13-2.14-1.42-2.19s-1.49,1.07-1.5,2.09c0,3.46,0,6.92,0,10.37l-.93.33c-4.47-.1-8.53-2.54-13.06-2.3-.61-3.81,2-6.6,3.14-9.86L257.7,184c2.93,1.74,5.86,2.9,8.8,0,.42,1,1.27.94,2.14.79l1.88.24C277.24,188.79,280.5,197.82,278.56,204.93Z"/><path class="cls-4" d="M304.3,164.23c-.16,2,1.72,3.74,1,5.88q-14.08,0-28.18,0c-2,0-3.71-.09-3.54-2.82.15-2.33,1.44-3.15,3.58-3.15,3.15,0,6.31-.06,9.46-.09l3.74-.12Z"/><path class="cls-7" d="M266.5,184c-2.94,2.88-5.87,1.72-8.8,0q-.63-2.47-1.24-5c.83-1.14-1.2-3.9,1.52-3.7,3.67.27,8-1.34,10.74,2.7Z"/><path class="cls-15" d="M271.66,170.24c-.37,1.27.58,2.8-.79,3.86a85.87,85.87,0,0,0-16.66,0l-.87-.7c.44-1.1.88-2.19,1.31-3.28Z"/><path class="cls-14" d="M307.47,152.05l-3,.33h-7.95c-4.32-1-4-5.37-5.81-8.19C296.57,146.21,302.68,147.73,307.47,152.05Z"/><path class="cls-5" d="M271.66,170.24l-17-.17.9-4,0,0,14.86,1.1C269.6,168.72,272.63,168.7,271.66,170.24Z"/><path class="cls-3" d="M296.51,152.38h2.91c-1.19,1.31-2.44,2.57-3.55,4-2,2.43-5.4,3.83-5.51,7.61l-3.74.12C288.91,159.32,293.37,156.41,296.51,152.38Z"/><path class="cls-14" d="M254.21,174.05a85.87,85.87,0,0,1,16.66,0,8.76,8.76,0,0,1-2.15,4c-2.76-4-7.07-2.43-10.74-2.7-2.72-.2-.69,2.56-1.52,3.7C253.9,178.19,255.07,175.67,254.21,174.05Z"/><path class="cls-3" d="M270.52,185.06l-1.88-.24,4.92-6.74,1.9,1.06C273.78,181.09,272.75,183.57,270.52,185.06Z"/><path class="cls-3" d="M71.26,170.17c-8.78-7.89-15.71-17.46-23.64-26.17,4.11,1.29,6.75,4.44,9.07,7.55,4,5.32,9.57,9.13,13.24,14.7.35.54,1.45.6,2.2.88C71.86,168.15,72.67,169.48,71.26,170.17Z"/><path class="cls-7" d="M98,156c2.51,1.31,3.34,4,5,6-2.1,0-4.21.17-6.31,0-1.39-.08-3.41.91-3.62-1.83-.18-2.22.39-3.36,2.87-3.18C96.62,157.14,97.34,156.41,98,156Z"/><path class="cls-2" d="M39.07,139.92c-3.12,11.16,3.57,17.87,11.24,24.46C40.93,163.23,34,148.13,39.07,139.92Z"/><path class="cls-5" d="M132,189.11l-.09,6.9c1.1,2.21,4,3.14,4.26,5.94-1.34,1.87-2.76.41-4.16.1L127,199a4.6,4.6,0,0,0-4-.88h-5c-1.37-.48-3,.35-4.28-.76,5-1.24,10.35-.91,14.89-4.09a5.05,5.05,0,0,0,2.52-4.34C131.4,189,131.68,189,132,189.11Z"/><path class="cls-9" d="M249.81,187.94c-1.14,3.26-3.75,6.05-3.14,9.86l-.06,3.1H142.92q0-16.89.05-33.78h1.81v18.66h2.32V167.12h9.64c.06,5.62.23,11.24.13,16.86-.06,3,1.11,4.07,4.1,4.07q37.82-.11,75.63,0c3,0,4.15-1.07,4.1-4.07-.1-5.62.07-11.24.13-16.86,3,.42,5.76-.65,8.63-1q.18,6.48.34,12.94Z"/><ellipse class="cls-2" cx="197.32" cy="204.91" rx="56.29" ry="0.7"/><path class="cls-2" d="M240.7,218.79c-.08,1.78-1.25,2.06-2.73,2.06l-55.7-.18c-.28,0-.55-.3-.83-.47l0-1.41Z"/><path class="cls-14" d="M259.73,200.1c.31-.11.62-.21.92-.33l2.91,1.33v9.76l-3.93-1C259.67,206.61,259.7,203.35,259.73,200.1Z"/><path class="cls-6" d="M263.56,201.1l-2.91-1.33c0-3.45,0-6.91,0-10.37,0-1,.18-2.14,1.5-2.09s1.27,1.2,1.42,2.19c.53,3.5-1.18,7.22,1,10.55Z"/><path class="cls-13" d="M290.36,163.94c.11-3.78,3.53-5.18,5.51-7.61,1.11-1.38,2.36-2.64,3.55-4h5q-.07,5.93-.16,11.85Z"/><path class="cls-4" d="M249.8,179.06q-.17-6.47-.34-12.94l.06-1.87,6,1.83-.9,4c-.43,1.09-.87,2.18-1.31,3.28C250.83,174.43,251.3,177.35,249.8,179.06Z"/><path class="cls-11" d="M160.07,119.39c-.06-12.56-.07-25.13-.21-37.7,0-2.37.74-3.11,3.11-3.1q35.33.1,70.65,0c3,0,4.14,1.08,4.09,4.08-.16,9.92-.15,19.84-.21,29.76h-2.66c-.05-8.43-.24-16.86-.1-25.29.06-3.47-1.15-4.61-4.61-4.59q-31.35.18-62.7,0c-3.47,0-4.64,1.14-4.6,4.6.11,10.75-.05,21.5-.11,32.24Z"/><path class="cls-9" d="M237.5,153.2c.06,9.59.05,19.18.21,28.76,0,3-1.06,4.11-4.08,4.1q-35.31-.1-70.63,0c-2.35,0-3.2-.69-3.14-3.09.17-7.6.15-15.2.2-22.81h2.67c.05,5.94.21,11.88.12,17.82,0,3,1,4.11,4.06,4.1q31.78-.12,63.56,0c3.3,0,4.29-1.28,4.25-4.42-.09-8.15.07-16.31.12-24.47Z"/><path class="cls-10" d="M237.5,153.2h-2.66V112.43h2.66Z"/><path class="cls-10" d="M162.73,160.16h-2.67q0-20.39,0-40.77h2.65Z"/><path class="cls-4" d="M147.1,167.12v18.66h-2.32V134.54h2.32Z"/><path class="cls-13" d="M249.8,179.06c1.5-1.71,1-4.63,3.54-5.71l.87.7c.86,1.62-.31,4.14,2.25,5q.62,2.49,1.24,5l-7.89,3.93C249.81,185,249.8,182,249.8,179.06Z"/><path class="cls-4" d="M162.73,160.16q0-20.39,0-40.77c.06-10.74.22-21.49.11-32.24,0-3.46,1.13-4.62,4.6-4.6q31.35.18,62.7,0c3.46,0,4.67,1.12,4.61,4.59-.14,8.43,0,16.86.1,25.29V153.2c-.05,8.16-.21,16.32-.12,24.47,0,3.14-.95,4.43-4.25,4.42q-31.78-.15-63.56,0c-3,0-4.1-1.14-4.06-4.1C162.94,172,162.78,166.1,162.73,160.16Zm3.31-7.95c0,7.93,0,15.86-.2,23.79-.05,2.37.76,3.11,3.12,3.1q29.83-.1,59.66,0c2.38,0,3.15-.76,3.11-3.12-.16-9.58-.15-19.16-.21-28.74V115.42c0-8.93,0-17.85.21-26.77,0-2.38-.76-3.11-3.12-3.1q-29.84.12-59.67,0c-2.38,0-3.13.75-3.1,3.11.15,10.91.15,21.81.21,32.72Q166.05,136.8,166,152.21Z"/><path class="cls-11" d="M166.05,121.38c-.06-10.91-.06-21.81-.21-32.72,0-2.36.72-3.12,3.1-3.11q29.84.12,59.67,0c2.36,0,3.16.72,3.12,3.1-.17,8.92-.16,17.84-.21,26.77-6.71,1.38-13.6.54-20.36,1.78-2.67.48-5.83,1.28-8.42-.9,3.52-2.76,7.53-3.35,12.2-2.13-6.21-9-26.38-7.54-33.27,6.22C176.46,120.69,171.16,119.6,166.05,121.38Z"/><path class="cls-9" d="M231.52,147.24c.06,9.58,0,19.16.21,28.74,0,2.36-.73,3.13-3.11,3.12q-29.84-.1-59.66,0c-2.36,0-3.17-.73-3.12-3.1.16-7.93.15-15.86.2-23.79,3.41-.61,6.8-1.29,10.31-1a25,25,0,0,0,11.59-2q13.83,8,27.67,0A39.23,39.23,0,0,1,231.52,147.24Z"/><path class="cls-10" d="M231.52,147.24a39.23,39.23,0,0,0-15.91,1.95c-1-.78-.39-3.7-3.51-1.35s-12-2.61-13.35-6.72c1,0,2.51.84,2.86-.67s-1.46-.75-2-1.26c-1.64-1.62-4-1.72-5.76-3,0-2.11-.07-4.22-.08-6.33-.05-6.5,3.31-10.77,8.94-13.55,2.59,2.18,5.75,1.38,8.42.9,6.76-1.24,13.65-.4,20.36-1.78Zm-19.78-23.09c-4.46,7.19-4.46,7.19-3.45,13.21,2.32-1.13,4.68-2.39,7.12-.23.59-2.24-.14-4.54,2-6,1.66-1.16.8-2.71-.67-2.56C213.48,128.85,213.44,126,211.74,124.15Z"/><path class="cls-10" d="M187.94,149.19a25,25,0,0,1-11.59,2c-3.51-.29-6.9.39-10.31,1q0-15.42,0-30.83c5.11-1.78,10.41-.69,15.62-1C178.07,131.22,179,141.07,187.94,149.19Zm-18.09-21.45c2.49.91,5,1.85,7.46,2.71.43.15,1,1.18,1.4,0a2.55,2.55,0,0,0-.22-1.74C175.6,128.35,173.14,125.86,169.85,127.74Z"/><path class="cls-4" d="M187.94,149.19c-8.92-8.12-9.87-18-6.27-28.8,6.89-13.76,27.06-15.27,33.27-6.22-4.67-1.22-8.68-.63-12.2,2.13-5.63,2.78-9,7-8.94,13.55,0,2.11,0,4.22.08,6.33-1.61,3.27,3.09,2,3,4.21.46.72.71,1.94,2,.82l-.09-.09c1.38,4.11,10.2,9.09,13.35,6.72s2.53.57,3.51,1.35Q201.77,157.2,187.94,149.19Z"/><path class="cls-4" d="M211.74,124.15c1.7,1.84,1.74,4.7,5,4.37,1.47-.15,2.33,1.4.67,2.56-2.14,1.51-1.41,3.81-2,6-2.44-2.16-4.8-.9-7.12.23C207.28,131.34,207.28,131.34,211.74,124.15Z"/><path class="cls-1" d="M196.89,140.39c.08-2.17-4.62-.94-3-4.21,1.76,1.29,4.12,1.39,5.76,3,.51.51,2.31-.2,2,1.26s-1.84.64-2.86.67l.09.09C198.54,140.1,197.7,140.28,196.89,140.39Z"/><path class="cls-1" d="M169.85,127.74c3.29-1.88,5.75.61,8.64,1a2.55,2.55,0,0,1,.22,1.74c-.36,1.15-1,.12-1.4,0C174.81,129.59,172.34,128.65,169.85,127.74Z"/><path class="cls-10" d="M196.89,140.39c.81-.11,1.65-.29,2,.82C197.6,142.33,197.35,141.11,196.89,140.39Z"/></g></g></svg>