<svg xmlns="http://www.w3.org/2000/svg" viewBox="0 0 388.68 283.5"><defs><style>.cls-1{fill:#f0f0fc;}.cls-2{fill:#eaebf8;}.cls-3{fill:#e9eaf7;}.cls-4{fill:#bac2f1;}.cls-5{fill:#c3cbfc;}.cls-6{fill:#c3cbfb;}.cls-7{fill:#82b649;}.cls-8{fill:#8dc056;}.cls-9{fill:#83b749;}.cls-10{fill:#63d7cb;}.cls-11{fill:#ce7cb4;}.cls-12{fill:#72dacb;}.cls-13{fill:#382f4c;}.cls-14{fill:#382f4b;}.cls-15{fill:#a9d17f;}.cls-16{fill:#fbceb2;}.cls-17{fill:#fcceb1;}.cls-18{fill:#c37ab6;}.cls-19{fill:#edaccc;}.cls-20{fill:#98c76d;}.cls-21{fill:#dee3fd;}.cls-22{fill:#7b678a;}.cls-23{fill:#9d92b0;}.cls-24{fill:#dfc2fb;}.cls-25{fill:#4f1939;}.cls-26{fill:#f55e81;}.cls-27{fill:#9e92b0;}.cls-28{fill:#dfc2fa;}.cls-29{fill:#f55f81;}.cls-30{fill:#cbade8;}.cls-31{fill:#7f628a;}.cls-32{fill:#636061;}.cls-33{fill:#d1d8eb;}.cls-34{fill:#80c481;}.cls-35{fill:#dfe2fe;}.cls-36{fill:#56d4cb;}.cls-37{fill:#71dacb;}.cls-38{fill:#3fd0cc;}.cls-39{fill:#8c849d;}.cls-40{fill:#d381b4;}.cls-41{fill:#b170b8;}.cls-42{fill:#fbceb1;}.cls-43{fill:#372e4b;}.cls-44{fill:#fdfefb;}.cls-45{fill:#fcfcfa;}.cls-46{fill:#aad180;}.cls-47{fill:#93c35d;}.cls-48{fill:#fcfdfb;}.cls-49{fill:#e2e5fd;}.cls-50{fill:#2b253d;}.cls-51{fill:#fdfefc;}.cls-52{fill:#2c263d;}.cls-53{fill:#e0e2f9;}.cls-54{fill:#e588b0;}.cls-55{fill:#e0e5f0;}.cls-56{fill:#b2bde0;}.cls-57{fill:#815e8a;}.cls-58{fill:#fd916c;}.cls-59{fill:#dec1fa;}.cls-60{fill:#e34b82;}.cls-61{fill:#fbcbb0;}.cls-62{fill:#caaee9;}.cls-63{fill:#927ca0;}.cls-64{fill:#fdc096;}.cls-65{fill:#fdceb1;}.cls-66{fill:#fc8865;}.cls-67{fill:#421731;}.cls-68{fill:#a6766e;}.cls-69{fill:#dfc1fa;}.cls-70{fill:#855255;}.cls-71{fill:#fcd5a9;}.cls-72{fill:#fdac84;}.cls-73{fill:#fc8e6b;}.cls-74{fill:#e44c81;}.cls-75{fill:#fdfdfb;}</style></defs><g id="Layer_2" data-name="Layer 2"><g id="Layer_1-2" data-name="Layer 1"><path class="cls-1" d="M16,129c1.47-4.07,4.43-7.2,7.13-10.35A97.57,97.57,0,0,1,55.57,93.48,122.25,122.25,0,0,1,68.1,88.66c15.39-5.31,25.83-15.84,33.71-29.89,10.86-19.35,26.83-33.69,46.3-44.28a121.12,121.12,0,0,1,42-13.56c11.36-1.54,22.76-1,34.18.32a130.75,130.75,0,0,1,28.28,6.33,99.8,99.8,0,0,1,34,19.68c13,11.54,22.06,25.64,28.7,41.61,4.07,9.78,5.75,20.28,10.13,29.94,5,11,11.52,20.83,21.16,28.38a27.74,27.74,0,0,1,3,3.27c-1.48,1-2.61-.09-3.76-.72-2.17-1.2-4.16-2.71-6.5-3.63-1.5-.6-2.17-2-2.77-3.36-1.85-4.36-5-6.55-9.89-6.28-6.44.36-12.93-.44-19.36.57a2.65,2.65,0,0,1-1.48,0c-4.11-1.88-8.24-2.36-12.48-.38-.3.14-.69-.2-1-.4-1.53-2.52-.2-5.44-1.18-8a18.57,18.57,0,0,1-.36-3.64,98.12,98.12,0,0,0-2.77-14.3,10.67,10.67,0,0,0-5-6.74,53.78,53.78,0,0,0-13.63-5.46,12.28,12.28,0,0,1-5.24-2.58c-2.68-3.63-1.62-12.13,2-14.8a7.17,7.17,0,0,0,3.12-4.83c2-6.15,1.88-6.6-3.64-9.79-2.44-1.41-4.12-3.54-5.89-5.63-3.31-3.89-7.39-5.8-12.58-4.29A6.78,6.78,0,0,0,242,43.67c.08,1.11.59,2.27.19,3.32-1.66,4.36.12,7.71,2.95,10.8A20.79,20.79,0,0,0,250.84,70a5.1,5.1,0,0,1,1.3,4.79c-.54,2.07-2.36,2.75-4,3.6a60.5,60.5,0,0,0-6.84,3.76,25.29,25.29,0,0,0-6.44,6.11c-.93,1.15-1.71,2.47-3.31,2.82-5.88-1.79-11.17-4.92-16.64-7.61-2.79-1.36-5.56-2.83-8.29-4.35-1.21-.68-2.6-1.47-2.5-3s1.77-1.88,3.05-2.33a5,5,0,0,0,2.88-1.59c-5.16-2.82-10.93-5.08-10.66-12.58.26-7.21,5-10.39,10.9-12.75C205,43.2,196,46.09,192.62,52.29c-3.14,5.69-2.17,15.11,4.23,19,4.86,3,4.56,5.1-.53,7.91s-10.34,5.55-15.66,8c-1.23.58-2.42,1.35-3.89,1.14-2.68-1-3.69-3.88-6.1-5.15-2.31-2-5.54-2.58-7.47-5.11A8.48,8.48,0,0,1,162,75.57c-.36-2,1.31-2.44,2.54-3.17a9.14,9.14,0,0,0,4.93-7.79c.25-4.32,1.28-8.59,1.39-12.94-.06-1,0-2,0-3-.52-9.09-2.14-10.42-11-9a48.18,48.18,0,0,0-8.73,2c-2.72,1-4.31,2.59-4.64,5.65a54.46,54.46,0,0,0-.57,8.17,11.22,11.22,0,0,0,1.9,7,12.48,12.48,0,0,1,1.15,11,9.63,9.63,0,0,1-2.29,3.41c-2.9,1.84-6.36,2.16-9.45,3.53a23.45,23.45,0,0,0-9,6.53,39.33,39.33,0,0,0-3.68,9.73c-.42,1.68-.76,3.42-2.24,4.59a4.56,4.56,0,0,0-1.79,2.32c-1.59,4.57-1.78,4.8-6.59,4.74-12.24-.14-24.48,0-36.72-.2-8.72-.13-17.48.1-26.22.22a15.22,15.22,0,0,1-4.48-.12c-5.85-1.71-9.6,1.83-13.67,5-5.27,4.1-9.53,9.13-13.82,14.15C18.26,128.25,17.46,129.31,16,129Z"/><path class="cls-2" d="M16,129c3-3.43,6-6.93,9.14-10.26,4.24-4.48,9.27-8,14.15-11.74a4.36,4.36,0,0,1,3.27-.46c11.31,1.16,22.6.41,33.92.31,7-.07,14.17.2,21.26.38,6,.15,12,0,18,.06,2.64,0,4.28-.73,3.65-3.62s1.52-2.6,3-3.16a2.28,2.28,0,0,1,.83,1.68c-.87,5.51-1.77,11-2.22,16.6-1.4,5.21-1.39,5.17-6.46,3.1a54.52,54.52,0,0,1-7.84-3.51c-2-1.18-3.58-.73-4.92,1a29.25,29.25,0,0,1-4.54,4.43c-6.61,5.37-7.62,12.85-4.52,20.63a19,19,0,0,1,1,11.32c-2.51,2.64-2.44,5.63-1.73,9,3.76,18.12,7.48,36.26,10.84,54.47.37,2,1.23,4.27-1.43,5.53-3.2-.66-6.72-.2-9.27-3.07-1.06-1.19-2.76-1-4.27-.72-2.39.41-3.58-.36-3.28-3,.18-1.55.73-3.45-1.14-4.34-1.69-.81-3.16.17-4.34,1.36-1.35,1.35-2.53,1.25-3.86,0-.86-.8-2.18-1.38-3.11-.85-4.32,2.47-8.41-.4-12.61-.28-.44-.84,0-1.44.54-2a10.74,10.74,0,0,1,7-2.09c1.49,0,3,0,4.29-.93,1-.73,1.77-1.6.45-2.69s-2.25-2.44-1.43-4.2a4.64,4.64,0,0,1,5-2.53c3.23.39,5.47-.9,7.44-3.23,1.25-1.48,1.25-2.38-.8-2.76a49.88,49.88,0,0,0-12.27-.25c-1.49.09-2.4,1.21-3.1,2.44a7.48,7.48,0,0,1-4.87,3.75c-1.88.36-3.5.08-4.29-1.91-.5-1.26-.13-3.3-2.49-2.8s-4.84.7-5.64,3.46a22.91,22.91,0,0,1-2.14,5.51c-2.1,3.48-4,3.71-7,.87-1.8-2.87-3.42-2.8-5.63.26a6.34,6.34,0,0,0-.92,5c.08.5.2,1,.26,1.47.47,3.64-.68,6.53-3,6.84-3.38.47-4.41-2.11-5.4-4.61a5.59,5.59,0,0,0-.52-1.44c-1.56,2.71-2,5.82-3.35,8.56a2.75,2.75,0,0,1-1.72,1.29c-3.64.49-6.26,3-9.3,4.65A90.42,90.42,0,0,1,.89,196.55a104.93,104.93,0,0,1-.55-22.39C1.44,157.77,6.24,142.47,16,129Z"/><path class="cls-3" d="M292.67,116.2c4.15-2,8.19-3.19,12.58-.24,1.81,1.21,4-.6,6.17-.54a151.29,151.29,0,0,0,16.77-.07c4.1-.34,7.5,2.09,8.13,4.57,1.34,5.26,5.85,5.89,9.09,8.33,1.21.91,2.48,2.1,4.21,2.21a81.89,81.89,0,0,1,24,20.85c7.14,9.29,11.43,19.77,13.89,31.07,1.38,6.35,1.25,12.85,1.11,19.32-1.38,1-2.6.06-3.85-.32a74.16,74.16,0,0,0-10.36-2.73c-7.91-1.38-15.79-1.75-23.52,1-1.32.47-3.29.66-3.23,2.56.06,1.64,1.75,2.28,3.06,3a14.89,14.89,0,0,0,5,1.49c1.21.17,2.54.11,3.24,1.44.23,2-1.23,3.47-1.79,5.22a1.82,1.82,0,0,1-2.38,1.27,8.79,8.79,0,0,0-6.88.72,2.43,2.43,0,0,1-2.52-.07c-2.52-1.52-4.85-1.57-7.25.39-1.31,1.08-2.26-.3-3.21-1-1.25-.95-2.61-1.75-4.12-.95s-1.23,2.4-1,3.71c.52,3.18-.78,4.13-3.76,3.5a5.1,5.1,0,0,0-4.81,1.5,7.58,7.58,0,0,1-3.59,1.73c-3.19.92-5.85,1.61-8.71-1.32-1.8-1.85-4.8,0-6,2.95-.57,1.39-.13,4-3.06,3-1.18-1.16-.74-2.55-.49-3.87,3.23-17.26,6.84-34.45,10.25-51.68a87.51,87.51,0,0,1,2-9.5c1-3.15.7-5.85-2.08-8a16.4,16.4,0,0,1,1.07-11.61c3.64-7.6,2.25-14.1-4-19.88-1.56-1.44-3.11-2.9-4.54-4.46-1.82-2-3.71-2.77-6.22-1.15-1,.63-2.17,1.39-3.44.38A2.17,2.17,0,0,1,292.67,116.2Z"/><path class="cls-4" d="M113.4,269.88q-21.93,0-43.86,0c-1.34,0-2.76.36-4-.47,1.74-2,4.12-1.17,6.26-1.35,1.48-.12,3,0,4.45-.06,2.86-.63,1.58-2.49,1.12-4a3.88,3.88,0,0,0-2.6-2.49c-3-1-5.28-2.5-5.62-6-.12-1.14-.85-1.66-2.14-1.28-1.47.44-3.19,2-4.46.61A6.78,6.78,0,0,1,61,248.68a4.84,4.84,0,0,1,4.83-.24c-2.44-2.9-2.4-3.38.68-4.74,1.72.08,2.91,1.34,4.38,2,1.69.72,3.67,1.89,3.58-1.79-.08-3,2.1-2.5,4-1.73,1.62.67,3.14,1.93,4-1,.38-1.34,1.76-1.13,2.89-.75,1.28.43,2.52,1.14,4,.46.34-1.44-1.12-1.74-1.7-2.56-.87-1.21-.39-1.78.79-2.19a178.44,178.44,0,0,1,34-.69c2.56,1.39,1.3,3.39.71,5.16-1.48,4.45-3.84,8.58-4.69,13.24-1,1.66-2.09,3.26-2.94,5a7.06,7.06,0,0,1-1.28,1.34c-4.56,3.87-4.57,4-.85,8.68A.94.94,0,0,1,113.4,269.88Z"/><path class="cls-5" d="M232,269.91H182.42c-3.6-1-4.27-2.24-3.34-6.4,1.41-1.92,1.4-4.14,1.5-6.4.21-4.44-.76-8.94.7-13.31a3.14,3.14,0,0,1,2.29-1.05,83,83,0,0,1,16.71,4c4.73,1.56,9.21,1.79,13.83-.09a42.66,42.66,0,0,1,5-1.45c3.56-.88,7.18-1.49,10.77-2.26a3.43,3.43,0,0,1,3,.75c1.61,4.34.53,8.86.78,13.29.12,2.24,0,4.48,1.44,6.42C236,267.41,235.34,268.8,232,269.91Z"/><path class="cls-6" d="M331.58,269.44c-5.06,1-10.18.31-15.27.42s-10.25,0-15.37,0c-.36-.91.38-1.33.86-1.86,2.85-3.11,2.81-4.09-.39-6.88a13.59,13.59,0,0,1-2.46-2.27c-.82-1.8-2.31-3.21-3-5.09-.68-4.9-3.47-9.06-4.77-13.74-.45-1.64-1.52-3.36.71-4.58,7.31-1,14.66-.64,22-.35,10.91.42,21.84.89,32.66,2.54,2.08.93,2.52,2.8,2.73,4.8a3.51,3.51,0,0,1-.63,1.65c-.92,1.52-2.34,1.41-3.91,1.49-5.9.31-9.82,1.74-10.83,7.95-.37,2.3-1.72,2.67-3.83,1.55-3.23-1.73-3.4-1.65-4.27,2-.52,2.17-2,3.06-3.82,3.66a7.24,7.24,0,0,0-4.75,4.44c-.52,1.39-.67,2.81,1.56,2.8,3,.05,5.91-.08,8.85.05C329.05,268.12,330.63,267.92,331.58,269.44Z"/><path class="cls-5" d="M283.09,270.78a2.24,2.24,0,0,0-2-.88l-34.31.23-.42-.49a11.26,11.26,0,0,1-.33-5.73,7.37,7.37,0,0,1,.36-1.24c1.44-5.1,1-10.39,1.59-15.57.3-2.47.16-5,1.57-7.22,1.83-1.34,4-1.39,6.14-1.7,8.28-.32,8.25-.32,9.44-8.5.24-1.66-.15-3.52,1.29-4.87,2.78-.36,2.75,2.14,3.35,3.63,3.38,8.45,7,16.77,12.22,24.3a16.88,16.88,0,0,0,4.87,5.05,7.55,7.55,0,0,1-.25,8.26C285.43,267.6,285.37,270,283.09,270.78Z"/><path class="cls-4" d="M167.51,270.16c-11.57-.68-23.15-.17-34.72-.22-.52,0-1,.56-1.56.86-2.28-.75-2.33-3.17-3.54-4.72-1.52-2.66-2.24-5.35-.38-8.16,5.8-4,8.11-10.56,11.58-16.24,1-1.68,1.48-3.76,3.53-4.67a12.14,12.14,0,0,1,5-.19c5.68,1.13,11.59.81,17.13,2.81,1.73,1.93,1.45,4.36,1.78,6.68.82,5.63-.08,11.46,2.06,16.92.52,2,0,4-.21,5.94A2.23,2.23,0,0,1,167.51,270.16Z"/><path class="cls-7" d="M331.58,269.44l-14.13-.33c-1.41-3.7.09-6.8,4.2-8.24,2.32-.8,4.22-1.44,4.16-4.64,0-2.2,1.93-2.66,4.5-1,2.22,1.42,3.14.77,3.55-1.54,1.1-6.19,5.64-9.14,11.91-7.76,1.2.26,2.3.95,3.59.91a20.93,20.93,0,0,0,12.41-.11,49.71,49.71,0,0,1,8-1.45c1.33-.16,2.79-.43,3.42,1.32A63.36,63.36,0,0,1,331.58,269.44Z"/><path class="cls-8" d="M27.89,250.53a77.07,77.07,0,0,1-16.44-22.6c1.06-4.54,4.88-5.34,8.54-5.9,3.4-.51,6.42.56,8.21,3.88.53,1,1.08,2,1.62,2.93,1.65,3,3.06,4.74,7.26,3,5.22-2.1,11.1,3.72,9.55,8.8-1.15,3.73.14,4.86,3.89,4.57,4.43-.35,9.12,2.36,10.64,6.15.83,2.06.72,2.35-1.26,3.47-2.5-3.3-5.89-3.81-9.67-3.09-6.29,1.19-12.56-1.13-18.86-.1C30.11,251.88,29.17,250.58,27.89,250.53Z"/><path class="cls-9" d="M27.89,250.53c4.55,0,9.13-.31,13.63.15a28,28,0,0,0,8.81,0,10.72,10.72,0,0,1,8,1,3.23,3.23,0,0,1,1.92,3.27c1.7,1.25,3.3,1.11,5.13,0,2.63-1.53,4.24-.8,4.47,2.24.18,2.25,1.1,2.68,3.06,3.19,4.27,1.09,6,4.82,4.51,8.74l-11.86.25C50.86,267.33,38.1,261.48,27.89,250.53Z"/><path class="cls-10" d="M387.92,210.83A43.71,43.71,0,0,1,384,227.19c-2.65,2.07-5.93.34-8.74,1.47a21.13,21.13,0,0,1-13.06-1.9,4.38,4.38,0,0,1-2.6-2.59c-.12-4,1.44-5.6,6.07-6.14,2.68-.31,5.53,0,7.66-2.18,1.11-1.45.79-2.69-.56-3.76a6.39,6.39,0,0,1-2.24-2.32c-.74-2.43-3-5.15-1.09-7.34s4.84,0,7.29.23c3.09.33,5.83,2.05,8.74,3.09A3.73,3.73,0,0,1,387.92,210.83Z"/><path class="cls-11" d="M373.22,246.6c-4.05-1.17-7.79.53-11.59,1.33-4.32.92-8.54,1.72-12.69-.49-2-.94-1.37-2.41-.78-3.86l.53-.6c1-1.81,2.9-1.73,4.55-2.14,5-1.26,5.33-1.84,3.78-6.61-.26-2.59-.46-5.16,2.73-6.24,7.31,0,13.66,3,20,6.17.44.21.58.79.72,1.27A36.79,36.79,0,0,1,373.22,246.6Z"/><path class="cls-12" d="M387.92,210.83a4,4,0,0,0-2.51-4.2,78.92,78.92,0,0,0-14.69-4.26c-1.35-.22-1.29,1.06-1,2,.52,1.89,1.06,3.79,1.59,5.68-1.58,1.08-3.2,0-4.79.09-2.57-.75-5.45-.1-7.82-1.73-1.95-1.28-4.35-.51-6.41-1.48-1.8-.85-3.65-1.5-5.09-3-1.86-1.88-1.91-3.42.77-4.48a42.71,42.71,0,0,1,26.45-1.69.63.63,0,0,1-.27.91,2,2,0,0,1-1.13.16c4,2.1,8.29,3.54,12.39,5.41,1.13.51,2.34.8,3.14,1.85C388.55,207.76,389,209.39,387.92,210.83Z"/><path class="cls-13" d="M246.82,270.13c.5,2.43,2.26,4.43,2.24,7.08,0,1.75-.45,2.91-2.32,3.19-7,1-14,2.24-21.09,3-3.62.4-4.41-1.16-2.75-4.56s4.52-5.58,7.57-7.59a3.39,3.39,0,0,1,3.52.33c3.31,2.82,6.37,1.55,9.5-.32,1-.59,1.84-1.79,3.28-1.12Z"/><path class="cls-13" d="M183.85,271.26c3.25,2.16,6.31,4.5,7.87,8.26,1.08,2.61.46,4.18-2.65,4-7.22-.52-14.31-1.93-21.44-3.07-1.85-.29-2.34-1.39-2.35-3.17,0-2.64,1.72-4.65,2.23-7.08l0,0c2.5-.48,3.87,1.72,5.84,2.52,2.22.89,4.09,1.4,6.05-.5A4,4,0,0,1,183.85,271.26Z"/><path class="cls-14" d="M283.09,270.78c1.17-1.42,1.23-3.51,2.8-4.7a3.58,3.58,0,0,1,3.13-.8c3.89.87,5.94-1.32,7.68-4.28.65-1.11,1.11-2.54,2.72-2.78.36.33.72.67,1.09,1,6.25,5.19,6.27,5.7.43,10.67-4.49,2.42-8.25,5.91-12.52,8.65-1.58,1-3.38,2.91-5.3,1.48-1.72-1.29-1.1-3.68-.91-5.62A24.34,24.34,0,0,1,283.09,270.78Z"/><path class="cls-13" d="M128.48,266.09c1.49,1.24,1.61,3.27,2.75,4.71a35.52,35.52,0,0,1,1,5.44c.16,4.36-1.4,5.35-5,3-4.07-2.58-7.91-5.51-11.86-8.27-.61-.43-1.27-.76-1.91-1.13-5.71-4.78-5.7-5.68.12-10.41.48-.39.92-.81,1.38-1.22,1.88.36,2.31,2.12,3.13,3.41,1.65,2.58,3.56,4.34,7,3.62A4,4,0,0,1,128.48,266.09Z"/><path class="cls-15" d="M77.38,269.15c.18-5.13-1.38-7.29-6.33-8.16-1.75-.3-1.79-1.22-1.91-2.55-.36-4.11-.7-4.23-4.1-2.25-1.93,1.11-4,2.15-4.83-1.25,1.93-3.6-1-5.34-3.06-7a8.48,8.48,0,0,0-7.36-1.68c-2.62.67-5.69-1.78-4.69-4.28,1.46-3.65.91-6.3-2.23-8.41s-6.4-1.23-9.45.62l-1.27.75c-1.33-4-3.94-7.23-6.2-10.53-2.06-3-9.33-1.9-12.83,1.5-.61.6-1.11,1.32-1.67,2l-.82-1.49c2.44-4,6.61-4.9,10.67-6a7.36,7.36,0,0,1,7.88,3.79c.73,1.27,1.15,2.7,2,3.94,1.17,2,2.92,2.42,5.1,2,4.56-.84,8.35.42,11,4.38a9.65,9.65,0,0,1,1,6.1c-.08.94-.56,1.9.12,2.81,2.38.47,4.85,0,7.19.91s4.49,2,5.34,4.58a5.75,5.75,0,0,1,.6,1.35c.61,3.43,1.57,5.27,5.58,2.84,2.48-1.49,3.11,1.51,3.27,3.11.2,2.22,1,3,3.15,3.64,4,1.18,5.74,4,5.47,7.36C79,268.39,78.72,269.21,77.38,269.15Z"/><path class="cls-16" d="M246.77,270.16c-.89.63-1.74,1.34-2.68,1.89-3.44,2-6.85,4.07-10.57.38-.71-.7-2-.79-3.05-1.16l1.49-1.36c2.35-1.29,3-3.45,3-5.92,3.89-1.13,7.8-.82,11.71-.18Z"/><path class="cls-17" d="M183.85,271.26a7.29,7.29,0,0,0-2.39.86c-4.88,4.41-8.92,1.61-13-1.37a9.78,9.78,0,0,0-.94-.57c0-2.06-.46-4.17.57-6.13a2,2,0,0,1,1.63-.79c3.12,1,6.46-.77,9.55.74-.09,2.57.61,4.72,3.13,5.91Z"/><path class="cls-10" d="M388.53,206.18c-6.41-1.65-12.17-4.87-18.4-7.27,1.17-2,3.08,0,4.27-1.06,5,.27,9.51,2.4,14.2,3.85Z"/><path class="cls-18" d="M362.35,225.84a24.86,24.86,0,0,0,12.85,2,8.55,8.55,0,0,1,7.42,3.32c-.54,1.15-1.09,2.29-1.63,3.43A172.63,172.63,0,0,0,362.2,228,1.65,1.65,0,0,1,362.35,225.84Z"/><path class="cls-19" d="M362.4,227.87a56.88,56.88,0,0,1,18.59,6.7l-.52.86c-6.45-3.25-13.1-5.9-20.35-6.75-1.12-.33-2.2.27-3.3.12s-2.12-.32-2.15-1.58,1.12-1.55,2.1-1.51C358.86,225.81,361,225.86,362.4,227.87Z"/><path class="cls-20" d="M382.62,231.14l-7.42-3.32c2.85-1.21,5.85-.45,8.77-.63A7.19,7.19,0,0,1,382.62,231.14Z"/><path class="cls-21" d="M183.94,243.63l-2.14,0c-2.41-3.41-1.65-7.5-1.81-11.17-1-22.89-3.1-45.66-5.84-68.39a6.82,6.82,0,0,1,0-1.86c2-2.84,2.18-5.89,2.1-9.38-.17-6.93-1.15-13.82-.95-20.76,0-1.11.09-2.23.22-3.34.18-1.64.94-2.53,2.73-2,3.06.83,5.24-.72,7.31-2.66,5.7-5.33,9.69-11.92,13.69-18.5,5.74-3.13,8.05-8.23,8.27-14.52,0-.85.37-1.87-.59-2.35s-1.6.4-2.24.95-1.41,1.42-2.16,2.08c-2.6,2.31-3,2.22-4.77-1.07-2,1.7-2.17,4.14-2.92,6.33-2.33,4.3-6.17,7.11-9.93,10-1.54,1.18-3,.81-3.48-1a150.86,150.86,0,0,0-5.5-17c-.13-.34.09-.72.27-1,4.34-.84,7.87-3.5,11.81-5.23,3-1.34,5.9-3.14,8.86-4.71,3.63-1.93,3.66-2.92.13-5.34-7.46-5.12-9.43-13.36-5-21.17,3.21-5.72,12.24-9,17.89-6.47,1,.44,2.42.64,2.32,2.06s-1.54,1-2.4,1.24c-5.67,1.81-9.13,5.58-9.39,10.32-.34,6.05,2.78,10.27,8.88,11.95,1.07.29,2.57.28,2.69,1.53.14,1.56-1.6,1.6-2.64,2.17-1.49.82-4.38.25-4.5,1.83-.18,2.22,2.72,2.51,4.4,3.37,7.51,3.86,15.09,7.58,22.64,11.36.43,3.27-1.27,6-2.39,8.86a85.77,85.77,0,0,0-4,15.14c-.1,1.85-.41,3.68-.55,5.52a12.33,12.33,0,0,0,3.52,9.78c.73,2.43,2.81,3.65,4.64,5.09,1.21,2.34,1.25,4.95,1.69,7.45a5.76,5.76,0,0,0,2.55,4.21,3.16,3.16,0,0,1,.49,2.79c-1,3.36,0,6.2,2.16,8.77a8.2,8.2,0,0,1,.44,3.18c-.93,9.24-2.32,18.43-3,27.7-.08,1.11-.22,2.25-1.36,2.88-2-.68-2.7.56-3.24,2.09-.68,1.93-.51,3.94-.6,5.92-.71,14.55-1.35,29.1-2.56,43.61A45.22,45.22,0,0,1,219.21,246c-1.06-4.67-.62-9.44-.19-14.06.55-5.85.66-11.72,1.08-17.56.63-8.7,1-17.44,1.38-26.16a5.86,5.86,0,0,0-2.11-4.6,8.71,8.71,0,0,1-2.82-5.94c-.14-3-1.85-5.13-4.19-6.75a62,62,0,0,0-9-4.68,3,3,0,0,0-2.54-.32c-4.25,2-9.48,3.06-12.14,7-2.92,4.38-4.41,9.71-6.6,14.58-1.33,3-.29,7.13,0,10.74,1.21,14.17,1.35,28.4,2.59,42.57A3.55,3.55,0,0,1,183.94,243.63Z"/><path class="cls-22" d="M163.65,78l7.44,4.61a8.56,8.56,0,0,1,2.24,4.62c1.91,10.17,2.38,20.48,3.19,30.76a3.33,3.33,0,0,1-.33,1.44c-1.06,1.41-2,.4-2.78-.29-3.29-3.06-7.26-1.76-11-1.79-1.32,0-1.77,1.09-2,2.28s0,2.66-1.92,2.55c-1.44-1.42-1.35-3.35-1-4.94,1.2-5,.32-9.94.09-14.88-.2-4.33-.11-8.67-.78-12.4.48,7.81,1.28,16.19,1.13,24.6-2.54,1.92-5.61,1.65-8.5,1.88-5,.41-10.11-.66-14.67,2.3-2.05-1.68-1.3-3.86-.88-5.84.82-3.89,2-7.67,3.23-11.46a15.52,15.52,0,0,0,.12-9.51c-1-3.08-2.87-4.78-6.27-4.72-1.1,0-2.72.9-3.29-1,4.8-6,11.89-7.67,18.75-9.73,2,1.37,3.25,3.44,5.14,4.88,3.79,2.88,5.79,2.75,9.14-.5C161.65,79.9,162.38,78.68,163.65,78Z"/><path class="cls-23" d="M127.65,86.2c.09.08.19.23.28.23,8.84-.44,13,5.32,10.51,14.29-1.64,5.84-4.29,11.47-4,17.74.8,2.94.42,5.94.36,8.9a86.8,86.8,0,0,0,2.83,24c.47,1.78,1.13,3.6.13,5.44-8.29,5.17-11.39,4.13-13.93-4.93-3.59-12.75-3.87-25.69-2.34-38.79.42-3.65,1.45-7.28,1.07-11-.06-.52-.11-1-.16-1.56,1.23-3.83,2.47-7.65,3.68-11.48A4.66,4.66,0,0,1,127.65,86.2Z"/><path class="cls-24" d="M283.55,82.55c3.7,1.85,5.12,5.27,5.94,9,.94,4.21,1.59,8.49,2.36,12.74-1,3.07.44,6.13.06,9.21-.22,1.72,0,3.48-.22,5.21-1.14,7.78-4.64,11.18-12.37,11-6.19-.13-12.41-.81-18.27-3.1-1.79-.7-3.93-1.13-4.49-3.5A11.9,11.9,0,0,1,258,116c3.48-1.93,7-.18,10.52-.13,1.73,0,3.45,0,5.18,0,3.15.23,3.84-1.51,3.42-4.22a107.7,107.7,0,0,0-1.88-11,30.33,30.33,0,0,1-.94-8.48C274.44,85.29,277,82.65,283.55,82.55Z"/><path class="cls-23" d="M175.61,120c-1.23-12.46-1.29-25.07-4.52-37.3,2.42,1,3.66,3.22,5.15,5.16a78.78,78.78,0,0,1,6.44,19.63A61.44,61.44,0,0,0,194.3,96.83a76.14,76.14,0,0,1,5.57,9c-3.67,7.39-8.21,14.16-14.42,19.66-2.47,2.19-5.26,3.91-8.85,1.43l-.29,4.34C174.06,129,173.75,124,175.61,120Z"/><path class="cls-17" d="M148,73.45c1.32-4.08,1-8-1.75-11.34-1.73-2.08-1.36-4.32-1.21-6.62a1.48,1.48,0,0,1,1-.31c4,1.61,7.2,1.28,8.49-3.61.08-.3.56-.45.9-.62,5.54-1.36,11-2.09,16.4.68-.53,5.3-.79,10.65-1.72,15.87-.5,2.85-2.75,4.91-5.58,6.08-.89.37-2.47.33-1.7,2.1-2.1,4.17-4.55,5.84-7.63,5.21A8.81,8.81,0,0,1,148,73.45Z"/><path class="cls-17" d="M251.4,74.94a5.69,5.69,0,0,0-1.77-4.9c-3.26-3.31-5.37-7.37-5-12.29-1.72-3-.83-6.07,0-9.08.52-2,1.94-2.25,3.41-1.1a19.55,19.55,0,0,0,8.53,3.55,6.21,6.21,0,0,1,3.86,2.75c1.59,2.27,3.36,3.18,5.9,1.1,1.33-1.1,3-1.51,3.85.77.38,2.5-.4,4.71-2.8,5.47A3.7,3.7,0,0,0,264.44,65c.24,3.3-2.33,6.73.37,9.9a6.39,6.39,0,0,1-1.47,2.85c-2,1.78-4,3.71-6.95,3.92a4.67,4.67,0,0,1-3.74-1.25C251.33,78.82,251.54,76.84,251.4,74.94Z"/><path class="cls-25" d="M270.12,55.74c-1.34-.8-2.53-1.31-3.92.16-2.27,2.4-5,2-6.41-1.15A4,4,0,0,0,256,52a14.48,14.48,0,0,1-10.06-5c-1.32,3.75-1.23,7.27-1.32,10.76-7.39-4.36-2.79-11.18-3.14-16.82-.23-3.81,3.1-5.74,8-6.25,4.31-.45,7.77,1.31,10.53,4.47s5.25,6.14,9.31,7.76C272.19,48.07,272.28,51.48,270.12,55.74Z"/><path class="cls-26" d="M263.15,77.19c.29-.94.16-2.2,1.66-2.26,3,2.38,6.93,2.44,10.29,3.91l8.45,3.71c-3.5,1.06-7.42,1.73-8,6.31a28.21,28.21,0,0,0,.33,9.6c1,4.6,1.91,9.22,2.46,13.87s.21,4.84-4.45,4.57c-1.93-4.93-1.62-10.23-2.49-15.34-.33-2-.5-3.79-3.12-3.75-2.85-.09-5.76.51-8.52-.71C257.06,89.81,258.54,83.23,263.15,77.19Z"/><path class="cls-27" d="M145.58,55.62l-.5-.13c-.56-3.63.45-7.17.63-10.75.08-1.6,1.21-2.36,2.5-3,6.23-2.84,12.81-3.7,19.58-3.55a2.31,2.31,0,0,1,2.41,1.87c.85,2.83,2,5.63,1.64,8.69-1.54,2.35-3.5,1.49-5.16.39-2-1.33-3.77-1.55-5.77-.08a3.8,3.8,0,0,1-4.21.45,4.45,4.45,0,0,0-6,1c-1.18,1.34-3.94.55-4.1,3.15A2.62,2.62,0,0,1,145.58,55.62Z"/><path class="cls-28" d="M224.43,114.75c1.27-8.39,4.15-16.28,7.45-24,2.7-3.28,4.76-7.2,8.93-9,1.09,1,.93,2.2.71,3.39-.6,3.36-.88,6.76-1.42,10.11-.65,1.78-2.34,1.19-3.59,1.6-.84.65-.75,1.65-1,2.54s-.54,2-.84,3a32.89,32.89,0,0,0-1.81,10.06,11.15,11.15,0,0,1-.29,2.38,16.72,16.72,0,0,0-.5,4.34c-.12,1.75-.75,3.09-2.72,3.33C225.35,121.43,225.38,117.78,224.43,114.75Z"/><path class="cls-29" d="M239.25,96c-.12-4.82,1.18-9.49,1.56-14.25,2-2.22,4.92-2.84,7.33-4.36,1.16-.72,2.48-1.19,3.26-2.41,1.11,1.57,1.1,3.5,1.71,5.23,1.72,5.57,1.2,11.06-.61,16.51C247.88,99.28,241.89,99,239.25,96Z"/><path class="cls-30" d="M257.38,123c.51,2.17,2.66,2.16,4.1,2.63,6.8,2.24,13.78,3.57,21,2.61,4.4-.58,6.91-3.07,7.9-7.54.93-4.17.66-8.37.75-12.57,0-1.31-.5-2.76.7-3.87,0,1.23,0,2.47.07,3.71.81,3.79-.06,7.65.49,11.45,1.22,7.07-3.53,11.91-11.87,12.1-2.12.06-4.23.07-6.35,0-6.25-1-12.56-1.83-18.21-5a2.08,2.08,0,0,1-.56-1.68C255.75,123.82,256,122.78,257.38,123Z"/><path class="cls-31" d="M145.75,53.33c.05-.82-.18-2.29.82-2.1,3.69.72,4.86-5.33,8.69-3.23,2.55,1.39,4.51,1.33,6.66-.57,1.38-1.22,2.83-1.08,4.24.33,1.59,1.59,3.49,2.35,5.68,1v2.83a59.37,59.37,0,0,0-17.15.13C151.88,53.24,149,54.13,145.75,53.33Z"/><path class="cls-32" d="M148,73.45c1.17,1,1,2.63,2.17,3.75,4.51,4.27,6.8,4.07,12.63-1.51l.81,2.35c-4.45,7.47-7.71,8.47-14,2.76-1.32-1.2-3-2.24-3.26-4.33C147,75.46,147.49,74.45,148,73.45Z"/><path class="cls-24" d="M291.91,120c0-4,0-8,0-12,1.52,2.63.33,5.51.75,8.24l0,3C292.83,119.88,292.57,120.12,291.91,120Z"/><path class="cls-3" d="M324,110.79h-8v-.38h8Z"/><path class="cls-33" d="M100.77,224.15c2.09-.43,1.54-2.15,1.31-3.32-2-10.45-4.21-20.88-6.33-31.32Q93,175.85,90.24,162.18c-.58-2.94.18-5.41,3-7a8,8,0,0,1,4.45-2.49c7.71-2.28,15.42-4.58,23.63-3.55,1.55.43,2,1.75,2.37,3.08a27.86,27.86,0,0,0,4.47,8.95c.37,4.69,2.84,8.53,5,12.48a190.12,190.12,0,0,1-6,54.16,8.29,8.29,0,0,1-1.7,3.71c-2.23,1.58-4.48,2-6.76,0-.38-.32.16-.11-.31-.19-4.32-.74-7.5-2.25-8.4-7.38-.45-2.55-3.81-2.27-6.22.29C102,226.2,102,226.2,100.77,224.15Z"/><path class="cls-34" d="M100.77,224.15c.61,1.1,1.45,1.77,1.93.07.84-3,2.94-3.48,5.5-3a4.44,4.44,0,0,1,3.75,4.5c.09,2.86,1,4.23,4,3.67a2.87,2.87,0,0,1,2.39.75c1.7,2.43,4.08,1.47,6.27,1.56.81,2,.9,3.69-1.51,4.61-12-.16-23.93-.25-35.87.72-2,.65-4.1-.16-6.19.42-1.54.42-2.41-.89-2.83-2.36-.58-2.09-2.15-2.63-3.71-1.48-3,2.23-5.28,2.63-6.82-1.42-.06-.16-.46-.14-.72-.11-1.42.32-1.79,1.62-2.43,2.64-.84,1.34-1.79,2.52-3.57,2s-1.57-2-1.49-3.45c-2.44,1.51-3.91,3.83-5.43,6.1-.84,1.25-1.63,2.52-3.25,2.88-1.21.17-2.41.26-3.38-.71,0-2.26.18-4.55-.76-6.7,1.46-1.25,3.82-1.25,4.74-3.32-.71-.57-1.49-.33-2.22-.38-1.86-.14-3.55-.56-3.86-2.75s1.15-3.14,2.75-4c2.68-1.46,5.57-1.15,8.42-1a7.27,7.27,0,0,0,7.11-4.77c.45-1.4-.42-1.7-1.38-2.14-1.25-.56-3.07-.64-2.7-2.8.6-.17,1.23-.57,1.78-.49,4,.62,7.93,1.39,12-.18,1.57-.61,2.67,1.42,3.86,2.77.54-.69,1-1.27,1.43-1.82A4.67,4.67,0,0,1,84,212.37c2.38.84,2,3.15,1.59,4.81-.72,2.87-.14,3.54,2.69,2.61,1-.32,2.76-.3,3.2.29C93.88,223.26,97.78,222.62,100.77,224.15Z"/><path class="cls-35" d="M121.77,150c-10-.6-19.28,2.28-28.58,5.26a42.93,42.93,0,0,0-2-12.27c-2.72-9.19-1.22-14.42,6.37-20.88.47-.4,1.15-.58,1.55-1,1.54-1.74,2.48-4.41,5-4.66,2.42-.25,4.09,2.14,6.33,2.87,1.65.55,3.5.86,4.87,1.84,2.8,2,4.19,1.45,4.69-1.87,1.28,1.05.87,2.52.87,3.83,0,8-.2,15.92,1.58,23.76A3.3,3.3,0,0,1,121.77,150Z"/><path class="cls-36" d="M59.55,213.64c.47,1.71,2.1,1.84,3.32,2,2.93.37,2.94,1.72,1.57,3.69-2.19,3.13-4,6.5-9.08,5a9.58,9.58,0,0,0-7.92,1.34A2.62,2.62,0,0,0,46,228.4c.22,1.38,1.23,1.76,2.47,1.77,1.69,0,3.39,0,6.06,0-2.91,2.41-4.05,5.66-7.83,4.63-3.09-3.73-6.94-4.86-11.52-3.34-2.76.91-3.63-1.23-4.85-2.85.33-3.25,2.78-5.18,4.81-7.24a14,14,0,0,0,3.93-14.2c-.41-1.6-.54-3,1.65-3.25,2.63,2.37,4,2.21,5.7-.76.61-1.08,1.44-2.29,1.4-3.42-.14-4.64,3.34-5.29,6.53-6.11,1.85-.46,4.31-1.38,3.7,2.54-.39,2.48,1.82,2.5,3.63,2.49,1.16,1.38,1.21,1.41.61,2.34a10.88,10.88,0,0,1-3.85,3.42c1.91-.4,4.2-1.48,5.27,1.13.91,2.22.65,4.46-2,5.67a3.14,3.14,0,0,0-1.46,1.12Z"/><path class="cls-37" d="M60.25,212.34c.27-1.77,2.63-1.71,3-3.62.58-3.36-.48-4.54-3.72-3.66-1,.29-2.07.63-3.32,1,.58-2,2.37-2.38,3.37-3.51s3.44-1.53,2.14-3.9a8.55,8.55,0,0,0,4.62-4.59A2.89,2.89,0,0,1,69.11,192c5,0,9.94-.4,14.89.64,2.39.5,1.93,1.54.83,2.75-2.53,2.77-4.65,6.17-9.46,4.91a3.54,3.54,0,0,0-4.52,2.37c-.52,1.92.93,2.57,2.54,2.93,1.23.28,1.25,1.16.62,2-1.29,1.68-2.51,3.44-5.11,3.08A14.13,14.13,0,0,0,60.25,212.34Z"/><path class="cls-38" d="M40.71,203.92c-.42.57-1.32,1.35-1.18,1.7,3.48,8.58-1.22,14.28-6.76,19.75a26.21,26.21,0,0,0-2.45,3.24c-1.66-4.21-4-7.63-9-8.17a22.85,22.85,0,0,1,4-10.74,59.57,59.57,0,0,0,2.13,5.62,3.12,3.12,0,0,0,3.26,2c1.67-.24,2-1.77,2.44-3a6,6,0,0,0,0-3c-1.14-5.89-.47-8,4.49-10.66C41.24,198.76,39.38,203.11,40.71,203.92Z"/><path class="cls-39" d="M121.77,150c-1.88-10.17-1.82-20.45-1.74-30.74.56-5.76.73-11.59,2.49-17.18,1.59,4.18-.25,8.27-.47,12.39a161.56,161.56,0,0,0,.07,22.33,83.83,83.83,0,0,0,3.19,16.38c1.82,6.29,2.73,6.86,8.86,4.42a7.13,7.13,0,0,1,3.21-.86.89.89,0,0,1,0,1.06c-2.85,2.35-5.75,4.53-9.8,3.51-3-1.51-3.22-4.67-4.42-7.24A42.56,42.56,0,0,1,121.77,150Z"/><path class="cls-1" d="M97.45,112.63c-1.67,1.35-2.94,1.82-4.79.33C94.32,112.21,95.65,112.5,97.45,112.63Z"/><path class="cls-33" d="M309.87,155.21c3.42,1.48,3.88,3.81,3.08,7.4-3.1,14-5.84,28-8.68,42.08-1.49,7.38-2.92,14.77-4.34,22.17a6.07,6.07,0,0,0,.21,1.77c-3.43,1.7-6,6.05-10.83,3.3-3.28-5.52-4-11.71-4.52-17.92,1.31-1.38,4.21,0,4.73-2.76.66-3.58,2.38-6.85,1.49-10.86-1.11-5-4.23-7.08-8.71-8.07a19.75,19.75,0,0,1-.78-11.82c1.64-2.1,3.68-.79,5.48-.47,7.55,1.36,7.39,1.38,9.36-6.1,1-3.85-.33-7.14-1.78-10.36-1.18-2.62-3.9-3-6.28-1.06a14.68,14.68,0,0,0-4.6,6.2c-.46,1.16-.31,2.84-2.15,3.08-2-2.08-1.05-4.67-1.23-7.06-.11-1.47-.14-3-.11-4.44.25-2.33,3-3.45,2.92-6,.9-1.51.8-3.48,2.16-4.78,3.07-1.39,6.2-.32,9.09.3C299.72,151,305.48,151.24,309.87,155.21Z"/><path class="cls-34" d="M289.67,231.68c4.27,1.67,6.65-3.16,10.47-3.05,2.14,0,1.26-1.7,1.51-2.74a5.76,5.76,0,0,1,4.23-4.66c2.35-.6,4.47-.16,5.66,2.33.26.54.89,1.5,1.22,1.11,2.12-2.55,6-.42,8.07-3.26,1.46-2,3.87-2.15,6.16-1.43,2,.64,2.34.27,1.85-1.85-.44-1.93-1.21-4.55,1.26-5.66s4.66-.21,6.1,2.16c.59,1,1.07,1.24,1.8.07s2.05-2.38,3-1.75c4.82,3.13,10.06-1.45,15,1.32a10.06,10.06,0,0,1,2.63-5.81,27.87,27.87,0,0,1,8.29.78c.39.3,1,.51,1.06,1,.43,2.68,1.83,4.16,4.66,4.28a1.74,1.74,0,0,1,1.68,1.72c-1.83,2.91-4.83,2.56-7.62,2.67-4.92.19-6.23,1.16-6.61,5.08-3.62,1.48-7.48.33-11.2,1.11s-7.35,1.12-10.69,2.91c-1,.51-2.31.94-2.21,2.23.11,1.45,1.58,1.77,2.72,2.18,1.79.64,3.68.43,5.53.49s3.49-.25,5.1.64c.9,2.3-.32,3.71-2.06,4.9-13-.73-25.94-2.31-39-2.23l-17.15.08C288.74,235.41,288.84,233.67,289.67,231.68Z"/><path class="cls-35" d="M309.87,155.21c-8-2.87-16.11-5.22-24.71-5.26a1.87,1.87,0,0,1-1.34-1.18c-1.55-5.69-3.26-11.34-3.77-17.26a1.66,1.66,0,0,1,.43-1C288,130.35,291.7,127,291.91,120c.24-.25.48-.51.73-.76,6.72-3.38,6.67-3.33,12.21,2.07,3.38,3.29,6.84,6.39,8.14,11.25.91,3.41,1.18,6.81-.54,9.77C310.06,146.41,309.57,150.68,309.87,155.21Z"/><path class="cls-14" d="M123.14,236.29a10.23,10.23,0,0,0,1.51-4.61c3.92-11.39,5.63-23.22,6.69-35.14.69-7.7.76-15.45,1.1-23.18,1.25-1.45,2.49-.34,3.72,0,.93.28,1.92,1.16,2.8.42s.07-1.84-.23-2.74c-1.71-5.17-1.71-5.16,3.49-7.2,2.73-1.06,5.48-.21,8.12.22,6.84,1.12,13.38,0,19.91-1.82,1.49-.43,3-1.44,4.61-.3,2.71,17.41,4,35,5.27,52.51.68,9.71,1.12,19.44,1.67,29.16,0,5.43,0,10.86.14,16.28.07,2.16-.5,3.54-2.65,4.07-3.22.17-6.45,1.45-9.65-.13-1.91-1-1.76-2.86-1.79-4.58-.45-20.76-3.85-41.13-8.22-61.36a5.37,5.37,0,0,0-1.07-2.74c-2.17-3-1.71-6.64-2.28-9.9-.92,14.3-4.38,28.07-9.06,41.59-2,3.49-2.15,7.85-5.26,10.78-3.18,6-6.13,12.1-10.17,17.6-1.07,1.44-2.15,2.72-4.11,2.78-3.93,1.28-7.34-.07-9.91-3.94-1.17-1.38-.13-2.57.34-3.79C119.92,245.68,122.26,241.25,123.14,236.29Z"/><path class="cls-40" d="M67,231.16c1,0,2.65-1,2.61.85-.13,5.35,2.45,2.43,3.76,1.13,1.61-1.59,3-1.27,4.73-.63l.35.13c1.9.7-.61,5.25,3,3.91a6.89,6.89,0,0,1,5.87.46,10.67,10.67,0,0,1,2,1.67c.66.88,2.77,1,1.88,2.65-.67,1.25-2.23.79-3.44.86a5.18,5.18,0,0,1-2.74-1c-1.15-.63-2.28-.72-2.15,1.15.19,2.82-1.48,2.26-3.05,1.65-1-.41-1.9-1.25-2.94-1.57s-2.19-.15-1.69,1.39c.32,1,2.27,1.78.13,2.84-1.61.8-3.21,1.33-4.89,0-1.07-.83-2.27-1.49-3.42-2.22-1-2.2-2.37-3.66-5.07-3.11a1.45,1.45,0,0,1-1.55-.77.8.8,0,0,1,.53-1.15C66,238.91,65.6,234.4,67,231.16Z"/><path class="cls-41" d="M67,231.16c0,6.78,0,6.78-6.2,9.36,3.39-.55,7.11-1.56,6.17,3.9-5.71,1.45.25,2.69.06,4.54H61c-3.44-3.09-7.12-5.42-12.07-3.93-.92.28-1.35-.37-1.43-1.24.84-1.51,2.79-1.24,3.84-2.41,1.86-2.46,3.62-5,5.61-7.35a16.22,16.22,0,0,1,3.3-2.33c.17.38.27.49.27.6,0,1.35-1.26,3.18.92,3.74,1.75.44,2.11-1.33,2.7-2.53S65.07,230.81,67,231.16Z"/><path class="cls-42" d="M117.77,254.1c3,2.2,6.07,4,9.91,3.94a10,10,0,0,0,.8,8c-7.25,2.11-10.93-2-13.58-7.84C115.71,256.77,115.88,254.84,117.77,254.1Z"/><path class="cls-43" d="M289.67,231.68a9.79,9.79,0,0,0,1.53,4.63c.93,4.94,3.15,9.41,5.05,14,.52,1.25,1.4,2.44.31,3.81-2.61,3.85-6,5.19-9.93,3.92-2.15-.05-3.21-1.58-4.3-3.12-5.85-8.22-10-17.3-13.63-26.67-.44-1.13-1-2.23-1.45-3.35-1.43-1-1.76-2.68-2.23-4.21-2.16-7-3.75-14.21-5.37-21.38-.69-5.37-2.38-10.65-1.48-15-.15,2,.09,5.27-1.79,8.13A165.32,165.32,0,0,0,252,210.91c-2.75,15.21-5,30.49-5.52,46a29.19,29.19,0,0,0,.5,6.33,4.78,4.78,0,0,0-.28.61A26.64,26.64,0,0,1,235,264c-1.86-.55-2.66-1.58-2.58-3.73.21-5.53.1-11.08.12-16.63-1.29-1.61-1.08-3.52-.94-5.37,1.07-14,1.38-28.06,2.88-42,.16-1.46,0-3,1.28-4.14q1.44-12.33,2.9-24.66.36-3.13.74-6.27c1.2-.85,2.43-.39,3.56.07,9.34,3.83,18.71,3,28.18.47,3.19-.85,6.15-2.75,9.65-2.39,1.59,2.61.35,5.48.78,8.21.23,1.44.3,2.9.45,4.35,1.93,2.65,1.62,5.35.19,8.07a58.1,58.1,0,0,0,.77,12.77c1.91,5.15,1.59,10.66,2.59,16,.3,1.65.93,3.4-.27,5C286.41,219.76,287.47,225.86,289.67,231.68Z"/><path class="cls-44" d="M183.94,243.63c-1.16-13.73-1.66-27.49-2.49-41.24-.28-4.79,0-9.66-.93-14.46-.45-2.39,1.1-4.31,3-5.63a4,4,0,0,0,1.9-4.09c-.45-4.6,2.56-7,6-9.08a14.08,14.08,0,0,1,2.4-1c2.85-1.12,5.44-4.59,8.27-3.55,4.81,1.76,10.45,3.23,13.37,7.76a66.3,66.3,0,0,1,6.94,14.76c1.33,4.06.49,9.83-.37,14.68-1.06,5.93-.62,11.89-1.11,17.82-.61,7.39-1.47,14.85-1,22.34a18.28,18.28,0,0,1-.64,4c-3.75,1.18-7.43,2.65-11.26,3.47-2.68.57-5.2-1.22-7.84-1.82C194.7,246.4,189.33,245,183.94,243.63Z"/><path class="cls-45" d="M235.75,192.09q-1.6,25.77-3.22,51.54l-2.86.08c-1.52-2.15-.93-4.63-.65-6.85.93-7.4.84-14.85,1.32-22.26.39-6.19,1.11-12.37.88-18.61-.1-2.72,1.34-5,3.85-6.57C236,190.16,235.38,191.27,235.75,192.09Z"/><path class="cls-42" d="M286.63,258c3.83,0,7-1.69,9.93-3.92a7.7,7.7,0,0,1,2.86,4.1,6,6,0,0,0-.59.95c-2.26,6.15-6.62,8.36-12.94,6.91C287.36,263.51,287.17,260.79,286.63,258Z"/><path class="cls-46" d="M348.16,243.58a5.22,5.22,0,0,0,.78,3.86c-2.09.85-3.69-1-5.82-.9-5.55.38-7.89,2.23-8.5,7.69-.29,2.52-2.14,3.33-4.39,1.92-3.18-2-3.75-1.77-3.82,1.91,0,2-.55,2.69-2.66,3-4.77.74-6.37,3.05-6.3,8-2.81-.61-1.67-2.72-1.24-4.09a7.91,7.91,0,0,1,6.12-5.42,2.7,2.7,0,0,0,2.49-2.65c.62-4.58,1.93-5.2,5.66-2.66,1.57,1.07,2.21,1.33,2.56-.93,1-6.12,5.63-9.57,12-8.69C346.56,244.87,347.38,244.67,348.16,243.58Z"/><path class="cls-47" d="M347.33,238.46c.78-1.45,1-3.18,2.29-4.36,2.93-2.08,5.64-1.54,8.2.68,2.35,3.22,1.73,5.37-2,6.5-2.32.7-4.73,1.14-7.09,1.7C348.24,241.47,347.78,240,347.33,238.46Z"/><path class="cls-48" d="M255.88,191.94c.35-1.42.59-2.89,1.08-4.27s.14-3,1.61-4.54c-.07,5.65,1.63,10.74,1.94,16,.62,9.59-1.42,19-2.47,28.41-.43,3.89-.2,8-2.17,11.57-2,.17-3.86,1.13-5.91.79-1.29-1.16-1.16-2.69-1-4.16,1.69-13,2.19-26.17,5.66-38.91C255.09,195.23,254.45,193.33,255.88,191.94Z"/><path class="cls-49" d="M255.87,239.14c.33-8.5,1.86-16.88,2.86-25.31.58-4.89,1.19-9.78,1.78-14.67q3.38,12.87,6.74,25.74c-1.52,2.68-1.31,5.76-1.44,8.59-.16,3.27-.71,5.07-4.4,5.32C259.57,238.93,257.72,239.1,255.87,239.14Z"/><path class="cls-50" d="M255.88,191.94c-.83,6.33-2.35,12.53-2.93,18.91-.81,9-2,17.9-3,26.85a18.44,18.44,0,0,0,0,2.23c-1,6.4-1.23,12.86-1.73,19.31-.11,1.35.54,3.08-1.24,4-1.52-.18-1.54-1.26-1.61-2.45-.39-6.22.36-12.39.94-18.55,1.09-11.41,3-22.71,5-34,.91-5.11,3-10,3.15-15.24C254.53,192.27,255.24,192.05,255.88,191.94Z"/><path class="cls-51" d="M146.32,227a227.58,227.58,0,0,0,8.77-36.56,25.36,25.36,0,0,1,1.46-6.37l2.49,11.1c2.26,7.21,3.08,14.7,4.16,22.14.87,6,1.47,12.06,2.09,18.11.16,1.6.44,3.24-.92,4.54a127.71,127.71,0,0,1-17.2-2.26C145.34,234.23,145.75,230.61,146.32,227Z"/><path class="cls-52" d="M164.37,239.94c-.43-8.29-1.45-16.51-2.7-24.71-1-6.67-1.76-13.39-2.63-20.08,2.17.87,1.7,3.06,2.05,4.64a421.74,421.74,0,0,1,7.28,46.39c.63,5.91-.57,11.91,1.27,17.69l-1.52.18c-2.15-1-1.88-3-2-4.83C165.61,252.79,165.41,246.33,164.37,239.94Z"/><path class="cls-53" d="M146.32,227a45.72,45.72,0,0,1,.85,10.7l-5.21,0Z"/><path class="cls-54" d="M357.82,234.78a20.12,20.12,0,0,0-8.2-.68c-2.48,0-5,0-7.44-.13a16,16,0,0,1-3.68-.44c-1.79-.53-4.05-1.25-4.32-3.12-.33-2.23,2.21-2.72,3.81-3.43a42.17,42.17,0,0,1,22.15-3c.7.65,1.07,1.71,2.21,1.84,0,.68,0,1.36,0,2-2.32-.64-4.62-1.46-7.45-1.09,1.5,2.08,3.95.24,5.17,1.89C356.76,229.74,358.18,232.6,357.82,234.78Z"/><path class="cls-55" d="M374.37,216.25c-.41-.27-.87-.84-1.21-.78-5.11.91-5.72-2.59-6.2-6.23l4.33.86C373.5,211.56,376.93,212.41,374.37,216.25Z"/><path class="cls-56" d="M51.32,241.38c-.48,2.07-2.2,2.18-3.84,2.4-1.06-.74-.55-1.51,0-2.28Z"/><path class="cls-57" d="M174.86,162c-6.15,2-12.36,3.82-18.91,3.62a90.12,90.12,0,0,1-10.35-1.09c-1.29-.2-2.43-.39-3.52.48-2.71-1.83-3.39-4.91-4.67-7.62a3.83,3.83,0,0,0,0-.68c0-4.28-1.76-8.23-2.51-12.38-1.47-8.16-1.22-16.35-1.11-24.55,0-.44.42-.87.64-1.3,3.09-3.75,7.39-3.18,11.44-2.93s7.8-1.12,11.76-.8c.86,3.52.65,7.14.74,10.7.23,9.71.07,19.43.08,29.14,0-9.35,0-18.69,0-28,0-1.46-.38-3,.73-4.31a15.65,15.65,0,0,0,.16-3.29,2.3,2.3,0,0,1,2.4-2.69c3,0,6,0,9,0,2.5,0,3,2.81,4.92,3.68.47,3.75-.72,7.59.7,11.28.47,8.44.76,16.9,1.5,25.33C178.05,159.37,176.59,160.58,174.86,162Z"/><path class="cls-58" d="M256,125.9a87.77,87.77,0,0,0,17.92,4.57c1.53,2,1,4.28,1.05,6.48a41.2,41.2,0,0,1-.58,5.19c-.73,6.87-1.68,7.87-8.52,8.76a30.44,30.44,0,0,1-6,.13,23.21,23.21,0,0,1-8-.79c-4.87-1.71-10.25-1-15-3.12-1.92.2-2.87-.34-3-2.59-.2-3.17-.94-6.32-1.45-9.48a20.57,20.57,0,0,0,4.5-9.83,6.05,6.05,0,0,1,5.33-1.15C246.85,125.11,251.78,123,256,125.9Z"/><path class="cls-59" d="M252.29,149.3a29.29,29.29,0,0,0,7.23.78c1.88,2,1,4.48,1.12,6.75.24,3.75.85,4.31,4.59,3.76a42.74,42.74,0,0,0,14.39-4.84c1.2-.65,2.37-1.95,4-1,.5,2.44-.68,3.83-2.86,4.59-11.07,4.69-22.38,7.32-34.44,4.24-2.4-.62-4.4-2.27-7-2.39,0-.94,0-1.88,0-2.83,1.34-.76,2.4.14,3.5.63a22.23,22.23,0,0,0,5,1.68c3.26.58,4-.16,4-3.47C251.84,154.55,250,151.8,252.29,149.3Z"/><path class="cls-60" d="M252.29,149.3c-.46,3.38.6,6.66.68,10,.06,2.26-.75,2.74-2.78,2.69-4-.1-7.39-1.92-10.81-3.68-3-1.78-3.48-4.48-2.74-7.6a8.19,8.19,0,0,0,.3-3.61A51.47,51.47,0,0,1,252.29,149.3Z"/><path class="cls-17" d="M199.87,105.8a16.07,16.07,0,0,1-5.56-9,8.62,8.62,0,0,1,1.61-5.23c.69-1,.69-3.19,2.48-2.62,1.32.42,1.39,2.16,1.45,3.94,1.64-1.56,3.28-3.11,4.91-4.68.83-.8,1.75-1.54,3-1.11,1.44.51,1,1.87.93,2.89C208,96.51,207.15,103,199.87,105.8Z"/><path class="cls-61" d="M237.1,126c.37,4-.65,7.28-4.62,9.06-2.84-.23-4.19-1.84-4.31-4.61a9.54,9.54,0,0,1-1.59-5.23c0-1.53.24-3,2.31-3.08a2.81,2.81,0,0,0,2.32-3.21c-.06-1.41-.46-3,.61-4.26,1.86,1.84.88,4.55,2.15,6.78C234.91,123.07,236.05,124.48,237.1,126Z"/><path class="cls-62" d="M228.89,122.13c-1.75,1-1.78,2.64-1.19,4.26a10.75,10.75,0,0,1,.47,4c-4.23-2.39-4.39-6.56-4.24-10.6.06-1.65.42-3.38.5-5.09C225.93,117.2,226.74,120.07,228.89,122.13Z"/><path class="cls-63" d="M159.17,122.22v36.21H157.6v-43.7c-.45-8.75-.9-17.5-1.36-26.67,1.4,1.85,1.35,3.56,1.45,5.3.52,8.81,1,17.63.75,26.47C158.42,120.7,158.36,121.6,159.17,122.22Z"/><path class="cls-64" d="M232,112.48a21,21,0,0,1,2.12-10.54,99.71,99.71,0,0,1,15.06-.44c4.45.18,8.9,0,13.35.08,1.84,0,3.72-.17,5.5.51,1.91,1.38.76,3.15.47,4.71-.63,3.38-1.62,6.71.13,10-3.49-.17-6.94-.94-10.46-.61-2.71-1.67-5.31-3.87-8.84-2.07-4-2.24-8.23-.84-12.36-.94C235.23,113.18,233.48,113.8,232,112.48Z"/><path class="cls-65" d="M249.88,114c1.52-2.79,3.71-1.64,5.55-.67,1.11.59,1.82,1.93,2.71,2.93q-.37,3.39-.76,6.76c-.46.5-.93,1-1.39,1.51-5.77.84-10.47-.87-13.82-5.78-1.41-2.07-.91-3.38,1.54-4C245.73,114.17,247.91,115,249.88,114Z"/><path class="cls-66" d="M268.6,116.84a3.1,3.1,0,0,1-2.27-3.64,72.32,72.32,0,0,1,2.17-10.53,4.79,4.79,0,0,1,.17-5.92c2.7-.34,3.77.76,3.77,3.56,0,5.56,1.78,11,1.43,16.59Z"/><path class="cls-67" d="M145.75,53.33a32.34,32.34,0,0,1,8.94-1.57,8.12,8.12,0,0,1-1.75,4.82c-.94,1.35-2,2.78-3.42.36-.9-1.53-2.84-.24-3.94-1.32C145.64,54.86,145.7,54.1,145.75,53.33Z"/><path class="cls-68" d="M159.78,65.58c1.79.74,3.74.27,6.17.61C163.3,68.12,161.48,67.36,159.78,65.58Z"/><path class="cls-69" d="M252.19,96.69q.45-8.26.92-16.52c4.33,2.34,6.89-1.32,10-3-2.8,6.16-4.28,12.56-3.45,19.37C257.23,98.37,254.72,98.23,252.19,96.69Z"/><path class="cls-70" d="M256.4,65.29c-1.47,2.08-3.4,1.62-6.39,1C252.8,65.8,254.71,66.14,256.4,65.29Z"/><path class="cls-71" d="M252.19,96.69l7.51-.13,9,.19c-.06,2-.11,4-.17,5.92-7.07-.25-14.13.46-21.22-.46-2.8-.36-5.87.61-8.85.53-1.5,0-3,0-4.34-.8a5.38,5.38,0,0,1,.9-3c1.11-.9,2.35-.6,3.56-.33a56.21,56.21,0,0,0,17,.69,26.94,26.94,0,0,1,7.12,0c-6.05-.71-12.05,1-18.09,0-3.21-.53-6.8-.16-9-3.4,1.24-1.2,2.43.58,3.66.08C243.46,97.86,247.82,97.46,252.19,96.69Z"/><path class="cls-72" d="M249.88,114c.57,3-1.74,1.15-2.64,1.43-1.69.52-4.33-.89-5,1.18-.32,1,1.67,3,3,4.25A11.38,11.38,0,0,0,254,123.9c.79,0,1.46-.09,2,.6l0,1.4c-6.31.11-12.62-2-18.92.09-.94-.27-1.87-.58-2.83-.78-.62-.14-1.5-.24-1.29-1,1-3.39-2.47-6.2-1.16-9.59l.15-2.18c4.2-.24,8.4-.43,12.59-.76C246.79,111.55,248.69,111.85,249.88,114Z"/><path class="cls-73" d="M235.59,95.88c5.44,2.44,11.14,2.89,17,2.52,3.59-.22,7.34-.93,11.17,1.09-9.91.79-19.4,2.27-28.8-.57C235,97.87,234.56,96.73,235.59,95.88Z"/><path class="cls-74" d="M283.64,154.72a51.56,51.56,0,0,1-18.76,7c-4.44.63-5,.22-5.16-4.19-.07-2.5-.14-5-.2-7.49,3.7-.15,7.42,0,11-1.36,1.55-.58,2.64-1.17,2.62-3.05,0-5.08,1.18-10.1.79-15.2l6.55,0L285.16,150C285.19,151.71,285.29,153.49,283.64,154.72Z"/><path class="cls-44" d="M126.94,208.81c.6,2.69-.74,4.23-3.84,4.56-2.08.22-4.13.75-6.21,1a3.37,3.37,0,0,1-2.83-.57c-1.64-1.41-3.8-11.32-2.86-13.3,1.19-2.5,1.41-5.42,4.08-7.27a3.23,3.23,0,0,1,4-.3C125.51,196.27,126.88,202,126.94,208.81Z"/><path class="cls-44" d="M121.66,177.24c-.11,2.06-1,3.08-2.7,3.4-2.67.51-5.33,1-8,1.45-2,.33-3.3-.19-3.58-2.58s-1-4.58-1.52-6.88c-1-4.66.62-8.48,3.82-11.8a2.77,2.77,0,0,1,3.33-.66c3.65,1.25,7.86,6.62,7.93,10.4C121,172.92,120.62,175.31,121.66,177.24Z"/><path class="cls-17" d="M137.41,157.37c2.55,1.93,3.27,5,4.67,7.62-.82,1.42-2.31.36-3.57,1-.08,2.34,1,4.41,2,6.49.39.81.85,1.56.09,2.38a2.33,2.33,0,0,1-2.75.37c-1.8-.63-3.17-2.52-5.41-1.86a15.1,15.1,0,0,1-4.82-12.12C131.2,160.76,134.3,159,137.41,157.37Z"/><path class="cls-75" d="M282.2,179.94q-.1-4-.19-8.07a13.81,13.81,0,0,1,6.75-10.9c2.88-1.72,6.25-.22,7.38,2.91,1.65,4.51,2.1,8.93.28,13.63s-1.58,4.88-6.57,4C287.29,181,284.75,180.45,282.2,179.94Z"/><path class="cls-48" d="M285.29,213.68c-1.16-7-2.48-13.88-2.32-21,5-.88,6.2.73,8.36,5.63s0,8.82-.87,13.13C289.81,214.71,288,215.16,285.29,213.68Z"/></g></g></svg>