<svg xmlns="http://www.w3.org/2000/svg" viewBox="0 0 155.94 46.95"><defs><style>.cls-1{fill:#1d1d1b;}.cls-2{fill:#26a745;}.cls-3{fill:#58565d;}.cls-4{fill:#2c2a2d;}.cls-5{fill:#afaeb4;}.cls-6{fill:#8b8892;}.cls-7{fill:#56b78b;}.cls-8{fill:#fff;}.cls-9{fill:#c8c6ce;}.cls-10{fill:#0fa653;}</style></defs><g id="Layer_2" data-name="Layer 2"><g id="Layer_1-2" data-name="Layer 1"><path class="cls-1" d="M57,22.57l2.22-17,8.2,11.61L75.64,5.53l2.22,17H74.58l-1.1-8.42-6,8.09-6-8.09-1.1,8.42Z"/><path class="cls-1" d="M90.94,10.87v-.82h3.25V22.57H90.94v-.82a5,5,0,0,1-3.38,1.19,6.62,6.62,0,0,1-6.64-6.64,6.66,6.66,0,0,1,6.64-6.64A4.87,4.87,0,0,1,90.94,10.87Zm0,5.43a3.59,3.59,0,0,0-1-2.54,3.25,3.25,0,0,0-4.78,0,3.77,3.77,0,0,0,0,5.09,3.25,3.25,0,0,0,4.78,0,3.57,3.57,0,0,0,1-2.54Z"/><path class="cls-1" d="M102.32,14.65c.22.07.58.15,1.05.26s1,.22,1.22.29a5.65,5.65,0,0,1,2.27,1.11,3.39,3.39,0,0,1,1,2.6,3.53,3.53,0,0,1-.92,2.43,4.57,4.57,0,0,1-2.2,1.34,6.46,6.46,0,0,1-1.82.26,6.39,6.39,0,0,1-1.81-.26,4.65,4.65,0,0,1-2.22-1.35,3.6,3.6,0,0,1-.9-2.47h3.26a1,1,0,0,0,.59.88A2.22,2.22,0,0,0,103,20a2,2,0,0,0,1.18-.33,1,1,0,0,0,.5-.8c0-.38-.34-.69-1-.9q-.33-.11-1.05-.27c-.55-.12-.95-.22-1.22-.29a5.53,5.53,0,0,1-2.27-1.12,3.4,3.4,0,0,1-1-2.59A3.6,3.6,0,0,1,99,11.26a4.71,4.71,0,0,1,2.21-1.33A6.06,6.06,0,0,1,103,9.66a6.12,6.12,0,0,1,1.82.27A4.57,4.57,0,0,1,107,11.28a3.58,3.58,0,0,1,.91,2.47h-3.26v0a1,1,0,0,0-.49-.8A2.1,2.1,0,0,0,103,12.6a2.07,2.07,0,0,0-1.18.32,1,1,0,0,0-.49.8Q101.3,14.32,102.32,14.65Z"/><path class="cls-1" d="M115.73,10.07v10A7.87,7.87,0,0,1,107.85,28V24.72a4.63,4.63,0,0,0,4.64-4.62v-10Zm-.45-3.82a1.67,1.67,0,0,1,0,2.38,1.68,1.68,0,0,1-2.87-1.19,1.68,1.68,0,0,1,2.87-1.19Z"/><path class="cls-1" d="M123,6.25a1.67,1.67,0,0,1,0,2.38,1.6,1.6,0,0,1-1.19.5,1.63,1.63,0,0,1-1.19-.5,1.69,1.69,0,0,1,0-2.38,1.62,1.62,0,0,1,1.19-.49A1.59,1.59,0,0,1,123,6.25Zm.44,3.8V22.57H120.2V10.05Z"/><path class="cls-1" d="M134,9.66a4.85,4.85,0,0,1,3.38,1.21V6.28h3.26V22.57h-3.26v-.82A4.93,4.93,0,0,1,134,22.94a6.64,6.64,0,0,1-6.64-6.64,6.37,6.37,0,0,1,2-4.68A6.38,6.38,0,0,1,134,9.66Zm3.38,6.64a3.59,3.59,0,0,0-1-2.54,3.25,3.25,0,0,0-4.78,0,3.77,3.77,0,0,0,0,5.09,3.25,3.25,0,0,0,4.78,0,3.57,3.57,0,0,0,1-2.54Z"/><path class="cls-2" d="M56.69,46.57l8.08-17,8.07,17H69.28L68,43.9H61.52l-1.27,2.67Zm10.14-5.16-1-2.1c-.22-.47-.58-1.3-1.06-2.48-.12.26-.3.66-.52,1.21s-.4,1-.53,1.24l-1,2.13Z"/><path class="cls-2" d="M78.23,30.28V46.57H75V30.28Z"/><path class="cls-2" d="M90.87,36.89v3.25H81.49V36.89Z"/><path class="cls-2" d="M97.27,30.28v6.07h7V30.28h3.26V46.57h-3.26v-7h-7v7H94V30.28Z"/><path class="cls-2" d="M120.29,34.87v-.82h3.26V46.57h-3.26v-.82a5,5,0,0,1-3.38,1.19,6.63,6.63,0,0,1-4.69-11.32,6.38,6.38,0,0,1,4.69-2A4.87,4.87,0,0,1,120.29,34.87Zm0,5.43a3.59,3.59,0,0,0-1-2.54,3.25,3.25,0,0,0-4.78,0,3.77,3.77,0,0,0,0,5.09,3.25,3.25,0,0,0,4.78,0,3.57,3.57,0,0,0,1-2.54Z"/><path class="cls-2" d="M136.71,46.57v-1.1A4,4,0,0,1,133.33,47a6.64,6.64,0,0,1-6.64-6.65V34.05H130V40.3a3.38,3.38,0,0,0,6.76,0V34.05H140V46.57Z"/><path class="cls-2" d="M149.3,33.66a4.87,4.87,0,0,1,3.38,1.21V30.28h3.26V46.57h-3.26v-.82a5,5,0,0,1-3.38,1.19,6.63,6.63,0,0,1-4.7-11.32A6.4,6.4,0,0,1,149.3,33.66Zm3.38,6.64a3.59,3.59,0,0,0-1-2.54,3.25,3.25,0,0,0-4.78,0,3.77,3.77,0,0,0,0,5.09,3.25,3.25,0,0,0,4.78,0,3.57,3.57,0,0,0,1-2.54Z"/><rect class="cls-3" y="29.88" width="11.03" height="16.33"/><rect class="cls-4" x="42.22" y="29.88" width="11.03" height="16.33"/><rect class="cls-3" x="16.07" y="15.86" width="21.11" height="8.96"/><rect class="cls-5" x="7.77" y="21.56" width="37.71" height="24.65"/><rect class="cls-4" x="26.62" y="15.86" width="10.55" height="8.96"/><rect class="cls-6" x="26.62" y="21.56" width="18.85" height="24.65"/><rect class="cls-3" x="24.99" width="3.26" height="5.27"/><rect class="cls-4" x="26.62" width="1.63" height="5.27"/><path class="cls-7" d="M40.67,19.12H12.57l0-1.65a14,14,0,0,1,28.05,0Z"/><rect class="cls-8" x="14.41" y="34.15" width="4.85" height="10.43"/><rect class="cls-8" x="24.19" y="34.15" width="4.85" height="10.43"/><rect class="cls-9" x="33.97" y="34.15" width="4.85" height="10.43"/><rect class="cls-7" x="12.86" y="27.15" width="7.97" height="3.26"/><rect class="cls-7" x="22.52" y="27.15" width="7.97" height="3.26"/><rect class="cls-10" x="32.3" y="27.15" width="7.97" height="3.26"/><rect class="cls-9" x="26.62" y="34.15" width="2.42" height="10.43"/><rect class="cls-10" x="26.62" y="27.15" width="3.87" height="3.26"/><path class="cls-10" d="M40.67,19.12h-14V3.64a14,14,0,0,1,14,13.83Z"/></g></g></svg>