<svg xmlns="http://www.w3.org/2000/svg" viewBox="0 0 111.66 20.33">
  <defs>
    <style>.cls-1{fill:#26a745;}.cls-2{fill:#58565d;}.cls-3{fill:#2c2a2d;}.cls-4{fill:#afaeb4;}.cls-5{fill:#8b8892;}.cls-6{fill:#56b78b;}.cls-7{fill:#fff;}.cls-8{fill:#c8c6ce;}.cls-9{fill:#0fa653;}</style>
  </defs>
  <g id="Layer_2" data-name="Layer 2">
    <g id="Layer_1-2" data-name="Layer 1">
      <path class="cls-1" d="M26.2,20l7-14.62,7,14.62H37L36,17.7H30.36L29.27,20Zm8.73-4.43-.86-1.81c-.19-.41-.5-1.12-.91-2.14q-.16.33-.45,1.05c-.19.47-.34.82-.45,1.06l-.88,1.84Z"/>
      <path class="cls-1" d="M44.75,6V20H42V6Z"/>
      <path class="cls-1" d="M55.63,11.67v2.8H47.55v-2.8Z"/>
      <path class="cls-1" d="M61.14,6V11.2h6.07V6H70V20H67.21V14H61.14v6h-2.8V6Z"/>
      <path class="cls-1" d="M81,9.93V9.22h2.8V20H81v-.7a4.27,4.27,0,0,1-2.91,1,5.7,5.7,0,0,1-5.72-5.71,5.5,5.5,0,0,1,1.67-4,5.49,5.49,0,0,1,4-1.69A4.24,4.24,0,0,1,81,9.93Zm0,4.68a3.14,3.14,0,0,0-.85-2.19,2.75,2.75,0,0,0-2.06-.91,2.72,2.72,0,0,0-2.06.91,3.1,3.1,0,0,0-.86,2.19A3.07,3.07,0,0,0,76,16.8a2.71,2.71,0,0,0,2.06.9,2.74,2.74,0,0,0,2.06-.9A3.09,3.09,0,0,0,81,14.62Z"/>
      <path class="cls-1" d="M95.1,20v-.94a3.43,3.43,0,0,1-2.91,1.27,5.72,5.72,0,0,1-5.71-5.72V9.22h2.8v5.39a2.85,2.85,0,0,0,.85,2.06,2.82,2.82,0,0,0,2.06.86,2.92,2.92,0,0,0,2.91-2.91V9.22h2.81V20Z"/>
      <path class="cls-1" d="M105.94,8.89a4.24,4.24,0,0,1,2.92,1V6h2.8V20h-2.8v-.7a4.28,4.28,0,0,1-2.92,1,5.7,5.7,0,0,1-5.71-5.71,5.5,5.5,0,0,1,1.67-4A5.48,5.48,0,0,1,105.94,8.89Zm2.92,5.72a3.1,3.1,0,0,0-.86-2.19,2.78,2.78,0,0,0-4.11,0,3.1,3.1,0,0,0-.86,2.19,3.07,3.07,0,0,0,.86,2.19,2.8,2.8,0,0,0,4.11,0,3.06,3.06,0,0,0,.86-2.18Z"/>
      <rect class="cls-2" y="13" width="5" height="7"/>
      <rect class="cls-3" x="18" y="13" width="5" height="7"/>
      <rect class="cls-2" x="7" y="7" width="9" height="4"/>
      <rect class="cls-4" x="3" y="9" width="16" height="10"/>
      <rect class="cls-3" x="11" y="7" width="4" height="4"/>
      <rect class="cls-5" x="11" y="9" width="8" height="10"/>
      <rect class="cls-2" x="11" width="1" height="2"/>
      <rect class="cls-3" x="11" width="1" height="2"/>
      <path class="cls-6" d="M17,8H5C4.29-.55,17.72-.54,17,8Z"/>
      <rect class="cls-7" x="6" y="15" width="2" height="4"/>
      <rect class="cls-7" x="10" y="15" width="2" height="4"/>
      <rect class="cls-8" x="14" y="15" width="2" height="4"/>
      <rect class="cls-6" x="6" y="12" width="3" height="1"/>
      <rect class="cls-6" x="10" y="12" width="3" height="1"/>
      <rect class="cls-9" x="14" y="12" width="3" height="1"/>
      <rect class="cls-8" x="11" y="15" width="1" height="4"/>
      <rect class="cls-9" x="11" y="12" width="2" height="1"/>
      <path class="cls-9" d="M17,8H11V1.44A6.08,6.08,0,0,1,17,8Z"/>
    </g>
  </g>
</svg>