<?xml version="1.0" encoding="iso-8859-1"?>
<!-- Generator: Adobe Illustrator 16.0.0, SVG Export Plug-In . SVG Version: 6.00 Build 0)  -->
<!DOCTYPE svg PUBLIC "-//W3C//DTD SVG 1.1//EN" "http://www.w3.org/Graphics/SVG/1.1/DTD/svg11.dtd">
<svg version="1.1" id="Capa_1" xmlns="http://www.w3.org/2000/svg" xmlns:xlink="http://www.w3.org/1999/xlink" x="0px" y="0px"
	 width="45.934px" height="45.934px" viewBox="0 0 45.934 45.934" style="enable-background:new 0 0 45.934 45.934;"
	 xml:space="preserve">
<g>
	<path d="M45.934,31.957c0-7.816-6.002-14.502-14.488-17.223c0-0.002,0-0.004,0-0.006c0-3.987-2.758-7.541-6.521-8.441V2.081
		c-0.001-1.105-0.886-2.001-1.99-2.001s-1.988,0.896-1.988,2.001v4.207c-3.666,0.9-6.444,4.454-6.444,8.441l0,0
		C5.998,17.447,0,24.135,0,31.957c0,2.955,0.861,5.744,2.391,8.221c-0.171,0.327-0.27,0.7-0.27,1.096v2.207
		c0,1.31,1.065,2.373,2.374,2.373h36.918c1.323,0,2.435-1.075,2.435-2.398V41.3c0-0.401-0.119-0.782-0.296-1.114
		C45.085,37.706,45.934,34.914,45.934,31.957z M25.839,30.729c0,0.332-0.295,0.572-0.626,0.572h-4.494
		c-0.333,0-0.59-0.24-0.59-0.572v-5.141c0-1.574,1.281-2.849,2.855-2.849c1.573,0,2.854,1.274,2.854,2.849L25.839,30.729
		L25.839,30.729z"/>
</g>
<g>
</g>
<g>
</g>
<g>
</g>
<g>
</g>
<g>
</g>
<g>
</g>
<g>
</g>
<g>
</g>
<g>
</g>
<g>
</g>
<g>
</g>
<g>
</g>
<g>
</g>
<g>
</g>
<g>
</g>
</svg>
