<?xml version="1.0" encoding="iso-8859-1"?>
<!-- Generator: Adobe Illustrator 19.0.0, SVG Export Plug-In . SVG Version: 6.00 Build 0)  -->
<svg version="1.1" id="Layer_1" xmlns="http://www.w3.org/2000/svg" xmlns:xlink="http://www.w3.org/1999/xlink" x="0px" y="0px"
	 viewBox="0 0 512 512" style="enable-background:new 0 0 512 512;" xml:space="preserve">
<rect y="321.139" style="fill:#57555C;" width="106.036" height="157.027"/>
<rect x="405.964" y="321.139" style="fill:#2B292C;" width="106.036" height="157.027"/>
<rect x="154.509" y="186.347" style="fill:#57555C;" width="202.982" height="86.162"/>
<rect x="74.689" y="241.162" style="fill:#AEADB3;" width="362.621" height="237.004"/>
<rect x="256" y="186.347" style="fill:#2B292C;" width="101.491" height="86.162"/>
<rect x="256" y="241.162" style="fill:#8B8892;" width="181.311" height="237.004"/>
<rect x="240.327" y="33.834" style="fill:#57555C;" width="31.347" height="50.636"/>
<rect x="256" y="33.834" style="fill:#2B292C;" width="15.673" height="50.636"/>
<path style="fill:#36CD90;" d="M391.095,217.694h-270.19l0.219-15.893c0.502-35.631,14.744-69.057,40.124-94.114
	C186.65,82.61,220.296,68.796,256,68.796s69.35,13.814,94.751,38.891c25.381,25.057,39.623,58.483,40.124,94.114L391.095,217.694z"
	/>
<g>
	<rect x="138.595" y="362.235" style="fill:#FFFFFF;" width="46.628" height="100.258"/>
	<rect x="232.626" y="362.235" style="fill:#FFFFFF;" width="46.623" height="100.258"/>
</g>
<rect x="326.656" y="362.235" style="fill:#C8C6CD;" width="46.628" height="100.258"/>
<g>
	<rect x="123.643" y="294.902" style="fill:#36CD90;" width="76.622" height="31.347"/>
	<rect x="216.576" y="294.902" style="fill:#36CD90;" width="76.633" height="31.347"/>
</g>
<rect x="310.565" y="294.902" style="fill:#00A653;" width="76.622" height="31.347"/>
<rect x="256" y="362.235" style="fill:#C8C6CD;" width="23.249" height="100.258"/>
<g>
	<rect x="256" y="294.902" style="fill:#00A653;" width="37.209" height="31.347"/>
	<path style="fill:#00A653;" d="M391.095,217.694H256V68.796c35.704,0,69.35,13.814,94.751,38.891
		c25.381,25.057,39.623,58.483,40.124,94.114L391.095,217.694z"/>
</g>
<g>
</g>
<g>
</g>
<g>
</g>
<g>
</g>
<g>
</g>
<g>
</g>
<g>
</g>
<g>
</g>
<g>
</g>
<g>
</g>
<g>
</g>
<g>
</g>
<g>
</g>
<g>
</g>
<g>
</g>
</svg>
