<svg xmlns="http://www.w3.org/2000/svg" viewBox="0 0 129.74 23.57"><defs><style>.cls-1{fill:#26a745;}.cls-2{fill:#58565d;}.cls-3{fill:#2c2a2d;}.cls-4{fill:#afaeb4;}.cls-5{fill:#8b8892;}.cls-6{fill:#56b78b;}.cls-7{fill:#fff;}.cls-8{fill:#c8c6ce;}.cls-9{fill:#0fa653;}</style></defs><g id="Layer_2" data-name="Layer 2"><g id="Layer_1-2" data-name="Layer 1"><path class="cls-1" d="M30.5,23.19l8.07-17,8.07,17H43.08l-1.26-2.67h-6.5l-1.26,2.67ZM40.64,18l-1-2.1c-.23-.47-.58-1.29-1.07-2.48-.12.26-.29.66-.52,1.21s-.4,1-.52,1.24L36.5,18Z"/><path class="cls-1" d="M52,6.9V23.19H48.78V6.9Z"/><path class="cls-1" d="M64.67,13.51v3.26H55.29V13.51Z"/><path class="cls-1" d="M71.07,6.9V13h7.05V6.9h3.26V23.19H78.12v-7H71.07v7H67.81V6.9Z"/><path class="cls-1" d="M94.09,11.49v-.82h3.26V23.19H94.09v-.82a4.93,4.93,0,0,1-3.38,1.19,6.62,6.62,0,0,1-6.63-6.64,6.64,6.64,0,0,1,6.63-6.63A4.89,4.89,0,0,1,94.09,11.49Zm0,5.43a3.63,3.63,0,0,0-1-2.54,3.26,3.26,0,0,0-4.79,0,3.77,3.77,0,0,0,0,5.09,3.26,3.26,0,0,0,4.79,0,3.61,3.61,0,0,0,1-2.54Z"/><path class="cls-1" d="M110.51,23.19v-1.1a4,4,0,0,1-3.38,1.48,6.37,6.37,0,0,1-4.69-1.95,6.4,6.4,0,0,1-2-4.7V10.67h3.26v6.25a3.38,3.38,0,0,0,6.76,0V10.67h3.26V23.19Z"/><path class="cls-1" d="M123.1,10.29a4.89,4.89,0,0,1,3.38,1.2V6.9h3.26V23.19h-3.26v-.82a4.93,4.93,0,0,1-3.38,1.19,6.64,6.64,0,0,1-6.64-6.64,6.66,6.66,0,0,1,6.64-6.63Zm3.38,6.63a3.59,3.59,0,0,0-1-2.54,3.25,3.25,0,0,0-4.78,0,3.77,3.77,0,0,0,0,5.09,3.25,3.25,0,0,0,4.78,0,3.57,3.57,0,0,0,1-2.54Z"/><rect class="cls-2" y="14.7" width="5.43" height="8.04"/><rect class="cls-3" x="20.78" y="14.7" width="5.43" height="8.04"/><rect class="cls-2" x="7.91" y="7.81" width="10.39" height="4.41"/><rect class="cls-4" x="3.82" y="10.61" width="18.56" height="12.13"/><rect class="cls-3" x="13.1" y="7.81" width="5.19" height="4.41"/><rect class="cls-5" x="13.1" y="10.61" width="9.28" height="12.13"/><rect class="cls-2" x="12.3" width="1.6" height="2.59"/><rect class="cls-3" x="13.1" width="0.8" height="2.59"/><path class="cls-6" d="M20,9.41H6.19V8.6A6.9,6.9,0,0,1,18,3.78,6.83,6.83,0,0,1,20,8.6Z"/><rect class="cls-7" x="7.09" y="16.81" width="2.39" height="5.13"/><rect class="cls-7" x="11.91" y="16.81" width="2.39" height="5.13"/><rect class="cls-8" x="16.72" y="16.81" width="2.39" height="5.13"/><rect class="cls-6" x="6.33" y="13.36" width="3.92" height="1.6"/><rect class="cls-6" x="11.08" y="13.36" width="3.92" height="1.6"/><rect class="cls-9" x="15.89" y="13.36" width="3.92" height="1.6"/><rect class="cls-8" x="13.1" y="16.81" width="1.19" height="5.13"/><rect class="cls-9" x="13.1" y="13.36" width="1.9" height="1.6"/><path class="cls-9" d="M20,9.41H13.1V1.79A6.9,6.9,0,0,1,20,8.6Z"/></g></g></svg>