<svg id="Layer_1" data-name="Layer 1" xmlns="http://www.w3.org/2000/svg" viewBox="0 0 1658.86 1600"><path d="M1053.58,26.92a734.26,734.26,0,0,1,285.05,579.72c0,405.54-328.75,734.3-734.29,734.3h0a734.32,734.32,0,0,1-578-281.71c109.39,337.23,423.37,565.76,777.9,566.21,452.26,0,818.89-366.63,818.89-818.9h0C1623,450.47,1392.79,135.3,1053.62,26.88Z" transform="translate(-26.38 -25.44)"/><path d="M708.71,341a50.6,50.6,0,1,1-70.83,71.18,56.48,56.48,0,0,0,52.92,39l-4.12,33.9,2.24,14.7a9.75,9.75,0,0,0-.17,17.71,11.75,11.75,0,0,0-2,21,14.62,14.62,0,0,0-3.54,24.21c-44.08,70.48-145.85,94.37-157.5,142.46-12.63,52.06,44.17,85.2,44.17,85.2h1.28a15.16,15.16,0,0,0-11.7,24.88c-35.91,11.75-61.07,30.06-93.39,44v12.2c-13.64,5.62-27.32,11.23-42.29,16.23v11c-9.11,3-18.34,6-28,8.82V841.13l21.91-22.61V808.28H395.81V684.65l21.91-22.6V651.8H395.81V544.58L417.72,522V511.74H393.67L361.82,379.62,330,511.74h-24V522l21.9,22.59V651.8H305.92v10.25l21.9,22.6V808.28h-21.9v10.24l21.9,22.61v196.13h-113V997.61L236.73,975V964.76h-21.9V841.13l21.9-22.6V808.29h-21.9V701.07l21.9-22.61V668.22h-24L180.84,536.1,149,668.22H124.94v10.24l21.9,22.61V808.29h-21.9v10.24l21.9,22.6V964.76H124.93V975l21.9,22.61v257.23h68l164,105H482.75v-333s-3.84-59.95,53.67-91.57c57.52,31.63,53.68,91.57,53.68,91.57v333h49.13v-333s-3.83-59.95,53.68-91.57c57.51,31.63,53.67,91.57,53.67,91.57v333h49.13v-333s-3.83-59.95,53.68-91.57c57.51,31.63,53.67,91.57,53.67,91.57v333h155l113-105h68V997.61l21.91-22.6V964.76H1239V841.13l21.91-22.6V808.29H1239V701.07l21.91-22.61V668.22h-24L1205,536.1l-31.85,132.12h-24.05v10.24l21.91,22.6V808.29h-21.91v10.24l21.91,22.6V964.76h-21.91V975L1171,997.61v39.65H1058V841.13l21.91-22.6V808.28H1058V684.65l21.91-22.6V651.8H1058V544.58L1079.92,522V511.74h-24.05L1024,379.62,992.18,511.74h-24V522L990,544.58V651.8h-21.9v10.25l21.9,22.6V808.28h-21.9v10.24L990,841.13v68.7c-12.73-3.51-24.66-7.33-36.4-11.22v-11c-15-5-28.66-10.61-42.3-16.23v-12.2c-30.41-13.12-54.46-30.12-87.11-41.87a15.17,15.17,0,0,0-9.53-27H816s56.8-33.13,44.18-85.2c-11.66-48.08-113.43-72-157.51-142.46a14.61,14.61,0,0,0-3.53-24.2,11.76,11.76,0,0,0-2-21,9.76,9.76,0,0,0-.15-17.72l2.23-14.69L695,451a56.41,56.41,0,0,0,13.66-110ZM361.82,565.34c23.79,13.08,22.2,37.87,22.2,37.87v31.87h-44.4V603.21s-1.59-24.79,22.2-37.87Zm662.23,0c23.79,13.08,22.2,37.87,22.2,37.87v31.87h-44.4V603.21s-1.59-24.79,22.2-37.87ZM361.82,718.28c23.79,13.08,22.2,37.87,22.2,37.87V788h-44.4V756.15s-1.59-24.79,22.2-37.87Zm662.23,0c23.79,13.08,22.2,37.87,22.2,37.87V788h-44.4V756.15s-1.59-24.79,22.2-37.87Zm-843.17,3.53c23.79,13.09,22.2,37.88,22.2,37.88v31.86h-44.4V759.69S157.09,734.9,180.88,721.81Zm1024.15,0c23.79,13.09,22.2,37.88,22.2,37.88v31.86h-44.4V759.69s-1.59-24.79,22.2-37.88ZM180.88,874.75c23.79,13.09,22.2,37.88,22.2,37.88v31.86h-44.4V912.63S157.09,887.84,180.88,874.75Zm1024.15,0c23.79,13.09,22.2,37.88,22.2,37.88v31.86h-44.4V912.63s-1.59-24.79,22.2-37.88Z" transform="translate(-26.38 -25.44)"/><path d="M658.31,25.44a54.54,54.54,0,1,0,76.35,76.73,60.83,60.83,0,1,1-76.35-76.73Z" transform="translate(-26.38 -25.44)"/><path d="M457.14,86.05l17.4,8.76,3,19.25,13.71-13.84,19.22,3.14-8.92-17.31,8.92-17.32-19.22,3.14L477.5,58l-3,19.25Z" transform="translate(-26.38 -25.44)"/><path d="M570.91,59.2l-8.13-.42-4.37-6.87-2.91,7.61-7.89,2L554,66.67l-.5,8.13,6.83-4.44,7.58,3-2.12-7.87Z" transform="translate(-26.38 -25.44)"/><path d="M355.92,97.5l10.87,9-1,14L377.68,113l13.06,5.29-3.53-13.64,9.07-10.79L382.22,93l-7.46-12L369.6,94.11Z" transform="translate(-26.38 -25.44)"/><path d="M249.19,165.65l10.87-9-1-14.05,11.88,7.56L284,144.9l-3.52,13.64,9.07,10.79-14.06.86-7.46,12L262.86,169Z" transform="translate(-26.38 -25.44)"/><path d="M1413,388.73l-10.87-9,1-14.05-11.89,7.57L1378.19,368l3.53,13.64-9.07,10.78,14.06.87,7.46,12,5.16-13.11Z" transform="translate(-26.38 -25.44)"/><path d="M352.67,138.78l-7.88-6.5.72-10.19-8.62,5.48-9.47-3.84,2.55,9.9-6.57,7.82,10.2.63,5.4,8.67,3.75-9.51Z" transform="translate(-26.38 -25.44)"/><path d="M589.76,130.94l-8.13-.42-4.38-6.86-2.91,7.6-7.88,2,6.33,5.12-.49,8.13,6.83-4.44,7.57,3-2.11-7.86Z" transform="translate(-26.38 -25.44)"/><path d="M441.07,122.37l8.13-.41,4.38-6.87,2.91,7.6,7.88,2L458,129.85l.49,8.13-6.82-4.44-7.58,3,2.12-7.87Z" transform="translate(-26.38 -25.44)"/><path d="M283.57,213.18l8.14-.42,4.37-6.87L299,213.5l7.89,2-6.34,5.12.5,8.13-6.83-4.44-7.58,3,2.12-7.87Z" transform="translate(-26.38 -25.44)"/><path d="M1661.93,357.26l8.14.42,4.37,6.87,2.91-7.61,7.89-2-6.34-5.12.5-8.13-6.83,4.44-7.58-3,2.12,7.87Z" transform="translate(-26.38 -25.44)"/><path d="M679,175.86l8.13.42,4.37,6.87,2.91-7.61,7.89-2-6.34-5.11.5-8.13-6.83,4.44-7.58-3,2.12,7.86Z" transform="translate(-26.38 -25.44)"/><path d="M763.47,148.66l8.14.42L776,156l2.91-7.61,7.89-2-6.34-5.12.5-8.13-6.83,4.44-7.58-3,2.12,7.86Z" transform="translate(-26.38 -25.44)"/><path d="M825.58,144.62l10.87,9-1,14,11.89-7.57,13.06,5.29-3.53-13.64,9.07-10.78-14.06-.87-7.46-11.95-5.16,13.11Z" transform="translate(-26.38 -25.44)"/><path d="M1558.37,370.06l10.87-9-1-14,11.88,7.57,13.06-5.3L1589.66,363l9.07,10.78-14.06.86-7.46,12L1572,373.45Z" transform="translate(-26.38 -25.44)"/><path d="M1224.79,365.42l10.86,9-1,14.05,11.88-7.56,13.06,5.29-3.52-13.64,9.06-10.79-14.06-.86-7.45-12L1238.46,362Z" transform="translate(-26.38 -25.44)"/><path d="M930.31,205.23l10.87,9-1,14.06,11.89-7.57,13,5.29-3.52-13.64,9.07-10.79-14.07-.86-7.45-12L944,201.83Z" transform="translate(-26.38 -25.44)"/><path d="M1114.06,319.16l10.87,9-1,14.05,11.89-7.56,13.06,5.29-3.53-13.65,9.07-10.78-14.06-.86-7.46-12-5.16,13.11Z" transform="translate(-26.38 -25.44)"/><path d="M946.17,293.65l8.13.42,4.37,6.87,2.92-7.61,7.88-2-6.34-5.12.5-8.13-6.83,4.44-7.57-3,2.11,7.86Z" transform="translate(-26.38 -25.44)"/><path d="M870.09,227.26l8.13.42,4.38,6.87,2.91-7.61,7.88-2-6.33-5.11.49-8.13-6.83,4.44-7.57-3,2.11,7.86Z" transform="translate(-26.38 -25.44)"/><path d="M1175.5,390.24l8.14.42,4.37,6.87,2.91-7.61,7.89-2-6.34-5.12.5-8.12-6.83,4.44-7.58-3,2.12,7.86Z" transform="translate(-26.38 -25.44)"/><path d="M1028.82,331.77l8.13.42,4.38,6.87,2.91-7.6,7.89-2-6.34-5.12.5-8.13-6.83,4.44-7.58-3,2.12,7.86Z" transform="translate(-26.38 -25.44)"/><path d="M1003,278.66l8.13.42,4.38,6.87,2.91-7.61,7.88-2-6.33-5.11.5-8.13-6.83,4.44-7.58-3,2.12,7.86Z" transform="translate(-26.38 -25.44)"/><path d="M182,188.34l8.13-.42,4.38-6.87,2.91,7.61,7.88,2L199,195.81l.5,8.13-6.83-4.44-7.57,3,2.11-7.86Z" transform="translate(-26.38 -25.44)"/><path d="M201.4,242.52l8.13-.42,4.38-6.87,2.91,7.61,7.88,2L218.37,250l.49,8.13L212,253.68l-7.58,3,2.12-7.87Z" transform="translate(-26.38 -25.44)"/></svg>